<svg style="vertical-align: -5.028ex;" xmlns="http://www.w3.org/2000/svg" width="36.190496603243844ex" height="11.215688106530346ex" role="img" focusable="false" viewBox="-20 -2742.5 15996.4 4985"><g stroke="currentColor" fill="currentColor" stroke-width="0" transform="scale(1,-1)"><g data-mml-node="math" data-latex="% 12 in Zeckendorf representation  % OLD: % \begin{align} % 111_{Zeckendorf} &amp;= 1 \cdot Z_4 + 1 \cdot Z_2 + 1 \cdot Z_0\\ % &amp;= 1 \cdot 8     + 1 \cdot 3     + 1 \cdot 1 \\ % &amp;= 8 + 3 + 1 \\ % &amp;= 12_{10} % \end{align}  \begin{align}     111_{Zeckendorf} &amp;= 1 \cdot F_4 + 1 \cdot F_2 + 1 \cdot F_0\\     &amp;= 1 \cdot 8     + 1 \cdot 3     + 1 \cdot 1 \\     &amp;= 8 + 3 + 1 \\     &amp;= 12_{10}     \end{align}"><g data-mml-node="mtable" data-latex="% 12 in Zeckendorf representation  % OLD: % \begin{align} % 111_{Zeckendorf} &amp;= 1 \cdot Z_4 + 1 \cdot Z_2 + 1 \cdot Z_0\\ % &amp;= 1 \cdot 8     + 1 \cdot 3     + 1 \cdot 1 \\ % &amp;= 8 + 3 + 1 \\ % &amp;= 12_{10} % \end{align}  \begin{align}     111_{Zeckendorf} &amp;= 1 \cdot F_4  + 1 \cdot F_2  + 1 \cdot F_0 \\     &amp;= 1 \cdot 8     + 1 \cdot 3     + 1 \cdot 1 \\     &amp;= 8 + 3 + 1 \\     &amp;= 12_{10}     \end{align}"><g data-mml-node="mtr" transform="translate(0,1972.5)"><g data-mml-node="mtd"><g data-mml-node="msub" data-latex="111_{Z e c k e n d o r f}"><g data-mml-node="mn" data-latex="111"><path data-c="31" d="M269 666C228 624 168 603 89 603L89 564C141 564 184 572 217 588L217 82C217 64 213 52 204 47C195 42 170 39 130 39L95 39L95 0C120 2 174 3 257 3C340 3 394 2 419 0L419 39L384 39C343 39 318 42 310 47C302 52 297 64 297 82L297 636C297 660 295 666 269 666Z" stroke="#fff" stroke-width="20" paint-order="stroke fill" stroke-linejoin="round"/><path data-c="31" d="M269 666C228 624 168 603 89 603L89 564C141 564 184 572 217 588L217 82C217 64 213 52 204 47C195 42 170 39 130 39L95 39L95 0C120 2 174 3 257 3C340 3 394 2 419 0L419 39L384 39C343 39 318 42 310 47C302 52 297 64 297 82L297 636C297 660 295 666 269 666Z" transform="translate(500,0)" stroke="#fff" stroke-width="20" paint-order="stroke fill" stroke-linejoin="round"/><path data-c="31" d="M269 666C228 624 168 603 89 603L89 564C141 564 184 572 217 588L217 82C217 64 213 52 204 47C195 42 170 39 130 39L95 39L95 0C120 2 174 3 257 3C340 3 394 2 419 0L419 39L384 39C343 39 318 42 310 47C302 52 297 64 297 82L297 636C297 660 295 666 269 666Z" transform="translate(1000,0)" stroke="#fff" stroke-width="20" paint-order="stroke fill" stroke-linejoin="round"/></g><g data-mml-node="TeXAtom" transform="translate(1533,-150) scale(0.707)" data-latex="{Z e c k e n d o r f}" data-mjx-texclass="ORD"><g data-mml-node="mi" data-latex="Z"><path data-c="1D44D" d="M720 653C722 662 723 668 723 670C723 679 718 683 707 683L277 683C252 683 249 680 243 660L189 483C187 478 186 472 185 467C188 459 190 453 201 453C206 453 212 457 218 465C239 530 267 577 302 604C337 631 389 644 457 644L609 644L62 33L58 13C58 4 64 0 75 0L516 0C542 0 545 2 551 23L621 242C622 246 625 253 625 257C625 267 619 272 608 272C601 272 594 263 588 244C566 176 539 126 506 94C471 59 413 42 333 42L173 42Z" stroke="#fff" stroke-width="20" paint-order="stroke fill" stroke-linejoin="round"/></g><g data-mml-node="mi" data-latex="e" transform="translate(723,0)"><path data-c="1D452" d="M124 129C124 153 129 186 139 227L188 227C253 227 303 235 339 250C372 264 394 284 405 309C412 326 415 342 415 355C415 410 363 442 307 442C268 442 229 432 190 412C113 372 46 281 46 171C46 69 105-11 204-11C257-11 304 2 345 27C379 48 404 69 420 90C427 99 430 106 430 109C430 120 425 126 414 126C409 126 404 122 398 114C365 70 324 42 277 30C246 22 223 18 206 18C149 18 124 72 124 129M375 355C375 289 311 256 182 256L147 256C166 322 194 366 232 387C262 404 287 413 307 413C343 413 375 391 375 355Z" stroke="#fff" stroke-width="20" paint-order="stroke fill" stroke-linejoin="round"/></g><g data-mml-node="mi" data-latex="c" transform="translate(1189,0)"><path data-c="1D450" d="M328 325C328 300 341 287 368 287C404 287 427 318 427 354C427 410 368 442 308 442C239 442 176 412 122 353C68 294 41 229 41 159C41 61 106-11 204-11C257-11 304 2 345 27C379 48 404 69 420 90C427 99 430 106 430 109C430 120 425 126 414 126C409 126 404 122 398 114C365 70 324 42 277 30C246 22 223 18 206 18C149 18 121 53 121 122C121 184 150 274 174 317C198 361 249 413 308 413C346 413 372 402 386 381C355 378 328 358 328 325Z" stroke="#fff" stroke-width="20" paint-order="stroke fill" stroke-linejoin="round"/></g><g data-mml-node="mi" data-latex="k" transform="translate(1622,0)"><path data-c="1D458" d="M409 353C409 327 423 314 450 314C485 314 508 345 508 379C508 418 476 445 437 445C392 445 344 415 291 356C250 311 217 282 190 269L291 679C289 688 287 694 274 694C242 694 166 685 154 684C139 682 132 675 132 660C132 650 141 645 159 645C178 645 204 646 204 632L59 43C56 32 55 25 55 21C55 0 66-11 87-11C104-11 117-3 124 12C129 21 147 92 179 226C231 221 286 196 286 146C286 131 279 101 279 91C279 34 316-11 373-11C431-11 470 41 490 145C490 154 485 159 475 159C466 159 460 152 457 138C435 59 408 19 375 19C357 19 348 33 348 61C348 77 360 131 360 147C360 204 314 239 221 253C244 269 270 292 298 322C326 352 346 371 359 382C386 404 412 415 435 415C445 415 453 413 459 409C432 404 409 379 409 353Z" stroke="#fff" stroke-width="20" paint-order="stroke fill" stroke-linejoin="round"/></g><g data-mml-node="mi" data-latex="e" transform="translate(2143,0)"><path data-c="1D452" d="M124 129C124 153 129 186 139 227L188 227C253 227 303 235 339 250C372 264 394 284 405 309C412 326 415 342 415 355C415 410 363 442 307 442C268 442 229 432 190 412C113 372 46 281 46 171C46 69 105-11 204-11C257-11 304 2 345 27C379 48 404 69 420 90C427 99 430 106 430 109C430 120 425 126 414 126C409 126 404 122 398 114C365 70 324 42 277 30C246 22 223 18 206 18C149 18 124 72 124 129M375 355C375 289 311 256 182 256L147 256C166 322 194 366 232 387C262 404 287 413 307 413C343 413 375 391 375 355Z" stroke="#fff" stroke-width="20" paint-order="stroke fill" stroke-linejoin="round"/></g><g data-mml-node="mi" data-latex="n" transform="translate(2609,0)"><path data-c="1D45B" d="M537 137C514 58 481 18 440 18C427 18 420 28 420 47C420 61 426 84 438 115C478 224 498 296 498 333C498 403 451 442 381 442C322 442 271 416 230 363C222 407 187 442 136 442C80 442 58 390 44 345C34 313 29 294 29 287C29 278 34 273 45 273C50 273 53 274 56 276C61 285 64 292 65 299C83 375 106 413 133 413C151 413 160 399 160 371C160 358 155 331 144 290L87 63C84 50 78 24 78 19C78-1 89-11 111-11C130-11 144-1 151 19C153 24 159 49 170 92L191 181L221 295C232 318 249 341 270 365C299 397 335 413 378 413C411 413 427 391 427 348C427 310 406 234 363 120C356 102 353 87 353 74C353 25 390-11 438-11C482-11 517 14 542 64C561 104 571 131 571 144C571 153 566 158 555 158C552 158 537 149 537 137Z" stroke="#fff" stroke-width="20" paint-order="stroke fill" stroke-linejoin="round"/></g><g data-mml-node="mi" data-latex="d" transform="translate(3209,0)"><path data-c="1D451" d="M429 632L370 389C349 426 320 445 281 445C216 445 159 412 109 345C63 283 40 218 40 151C40 63 91-11 175-11C218-11 260 12 300 59C311 21 345-11 392-11C461-11 483 71 498 145C498 154 493 159 483 159C474 159 468 152 465 138C445 59 421 19 394 19C377 19 368 33 368 60C368 75 370 91 374 107L516 679L516 683C513 690 507 694 499 694C476 694 434 690 374 683C363 682 357 674 357 660C357 650 366 645 384 645C403 645 429 646 429 632M341 376C351 355 356 341 356 332C355 328 354 323 353 316L304 122C301 111 294 99 285 87C248 42 212 19 177 19C138 19 118 49 118 108C118 132 124 168 136 216C157 301 187 359 224 390C244 407 263 415 282 415C309 415 329 402 341 376Z" stroke="#fff" stroke-width="20" paint-order="stroke fill" stroke-linejoin="round"/></g><g data-mml-node="mi" data-latex="o" transform="translate(3729,0)"><path data-c="1D45C" d="M308 442C239 442 176 412 122 353C68 294 41 229 41 159C41 63 106-11 202-11C272-11 334 19 388 78C442 137 469 201 469 272C469 369 405 442 308 442M389 310C389 287 384 255 374 213C353 130 319 73 272 42C248 26 225 18 203 18C149 18 121 65 121 122C121 180 155 288 178 324C216 383 259 413 307 413C361 413 389 367 389 310Z" stroke="#fff" stroke-width="20" paint-order="stroke fill" stroke-linejoin="round"/></g><g data-mml-node="mi" data-latex="r" transform="translate(4214,0)"><path data-c="1D45F" d="M436 374C436 416 395 442 351 442C302 442 261 419 227 372C217 411 183 442 136 442C95 442 65 410 44 345C34 312 29 293 29 287C29 278 34 273 45 273C50 273 53 274 56 276C61 285 64 292 65 299C83 375 106 413 133 413C150 413 159 399 159 371C159 358 154 331 144 290L87 63C84 50 78 24 78 19C78-1 89-11 110-11C130-11 143-1 150 19L169 91C180 134 187 162 190 175L221 303C223 311 231 324 244 343C271 381 302 413 351 413C363 413 373 411 382 406C352 397 337 378 337 351C337 325 351 312 378 312C411 312 436 341 436 374Z" stroke="#fff" stroke-width="20" paint-order="stroke fill" stroke-linejoin="round"/></g><g data-mml-node="mi" data-latex="f" transform="translate(4665,0)"><path data-c="1D453" d="M552 633C552 677 509 705 462 705C400 705 357 665 334 586C329 568 318 517 302 433L237 433C215 433 204 432 204 411C204 400 214 395 235 395L295 395L222 8C211-49 201-91 192-119C180-156 163-175 141-175C126-175 114-171 103-164C135-159 151-140 151-108C151-82 138-69 111-69C77-69 53-99 53-133C53-177 94-205 141-205C166-205 189-195 208-174C240-141 265-94 283-31C294 8 304 46 311 84L369 395L451 395C474 395 484 396 484 419C484 428 474 433 454 433L377 433C383 474 411 625 420 644C430 665 444 675 462 675C477 675 490 671 501 664C470 657 454 639 454 608C454 582 467 569 494 569C528 569 552 599 552 633Z" stroke="#fff" stroke-width="20" paint-order="stroke fill" stroke-linejoin="round"/></g></g></g></g><g data-mml-node="mtd" transform="translate(5272,0)"><g data-mml-node="mstyle"><g data-mml-node="mi"/><g data-mml-node="mo" data-latex="=" transform="translate(277.8,0)"><path data-c="3D" d="M698 367L80 367C64 367 56 359 56 344C56 329 64 321 80 321L698 321C714 321 722 329 722 344C722 356 711 367 698 367M698 179L80 179C64 179 56 171 56 156C56 141 64 133 80 133L698 133C714 133 722 141 722 156C722 169 711 179 698 179Z" stroke="#fff" stroke-width="20" paint-order="stroke fill" stroke-linejoin="round"/></g><g data-mml-node="mn" data-latex="1" transform="translate(1333.6,0)"><path data-c="31" d="M269 666C228 624 168 603 89 603L89 564C141 564 184 572 217 588L217 82C217 64 213 52 204 47C195 42 170 39 130 39L95 39L95 0C120 2 174 3 257 3C340 3 394 2 419 0L419 39L384 39C343 39 318 42 310 47C302 52 297 64 297 82L297 636C297 660 295 666 269 666Z" stroke="#fff" stroke-width="20" paint-order="stroke fill" stroke-linejoin="round"/></g><g data-mml-node="mo" data-latex="\cdot" transform="translate(2055.8,0)"><path data-c="22C5" d="M192 250C192 279 168 303 139 303C110 303 86 279 86 250C86 221 110 197 139 197C168 197 192 221 192 250Z" stroke="#fff" stroke-width="20" paint-order="stroke fill" stroke-linejoin="round"/></g><g data-mml-node="msub" data-latex="F_4" transform="translate(2556,0)"><g data-mml-node="mi" data-latex="F"><path data-c="1D439" d="M199 656C199 646 210 641 231 641C271 641 291 637 291 628C291 625 289 618 286 605L156 82C150 60 140 47 126 42C119 40 101 39 70 39C48 39 38 37 38 16C38 5 44 0 57 0L187 3L335 0C351 0 359 8 359 23C359 40 348 39 322 39C278 39 253 41 247 46C244 47 243 51 243 56L307 321L400 321C446 321 478 319 478 281C478 268 476 252 471 233C470 230 469 226 468 222C468 211 473 206 484 206C489 207 496 214 503 229L557 444C559 452 560 458 560 461C557 470 551 475 544 475C536 475 530 467 526 452C516 414 502 390 486 378C470 366 442 360 402 360L317 360L379 606C387 640 387 641 429 641L559 641C656 641 700 626 700 537C700 517 699 499 697 484C696 473 695 467 695 466C695 455 700 450 710 450C720 450 726 459 728 478L748 649C751 677 744 680 717 680L233 680C210 680 199 679 199 656Z" stroke="#fff" stroke-width="20" paint-order="stroke fill" stroke-linejoin="round"/></g><g data-mml-node="mn" transform="translate(676,-150) scale(0.707)" data-latex="4"><path data-c="34" d="M353 677C344 677 336 672 330 663L28 199L28 163L289 163L289 81C289 63 285 51 278 46C271 41 252 39 219 39L194 39L194 0C223 2 269 3 331 3C393 3 439 2 468 0L468 39L443 39C410 39 391 41 384 46C377 51 373 63 373 81L373 163L471 163L471 202L373 202L373 660C373 670 366 677 353 677M295 553L295 202L67 202Z" stroke="#fff" stroke-width="20" paint-order="stroke fill" stroke-linejoin="round"/></g></g><g data-mml-node="mo" data-latex="+" transform="translate(3857.8,0)"><path data-c="2B" d="M698 274L413 274L413 559C413 575 405 583 389 583C373 583 365 575 365 559L365 274L80 274C64 274 56 266 56 250C56 234 64 226 80 226L365 226L365-59C365-75 373-83 389-83C405-83 413-75 413-59L413 226L698 226C714 226 722 234 722 250C722 263 711 274 698 274Z" stroke="#fff" stroke-width="20" paint-order="stroke fill" stroke-linejoin="round"/></g><g data-mml-node="mn" data-latex="1" transform="translate(4858,0)"><path data-c="31" d="M269 666C228 624 168 603 89 603L89 564C141 564 184 572 217 588L217 82C217 64 213 52 204 47C195 42 170 39 130 39L95 39L95 0C120 2 174 3 257 3C340 3 394 2 419 0L419 39L384 39C343 39 318 42 310 47C302 52 297 64 297 82L297 636C297 660 295 666 269 666Z" stroke="#fff" stroke-width="20" paint-order="stroke fill" stroke-linejoin="round"/></g><g data-mml-node="mo" data-latex="\cdot" transform="translate(5580.2,0)"><path data-c="22C5" d="M192 250C192 279 168 303 139 303C110 303 86 279 86 250C86 221 110 197 139 197C168 197 192 221 192 250Z" stroke="#fff" stroke-width="20" paint-order="stroke fill" stroke-linejoin="round"/></g><g data-mml-node="msub" data-latex="F_2" transform="translate(6080.4,0)"><g data-mml-node="mi" data-latex="F"><path data-c="1D439" d="M199 656C199 646 210 641 231 641C271 641 291 637 291 628C291 625 289 618 286 605L156 82C150 60 140 47 126 42C119 40 101 39 70 39C48 39 38 37 38 16C38 5 44 0 57 0L187 3L335 0C351 0 359 8 359 23C359 40 348 39 322 39C278 39 253 41 247 46C244 47 243 51 243 56L307 321L400 321C446 321 478 319 478 281C478 268 476 252 471 233C470 230 469 226 468 222C468 211 473 206 484 206C489 207 496 214 503 229L557 444C559 452 560 458 560 461C557 470 551 475 544 475C536 475 530 467 526 452C516 414 502 390 486 378C470 366 442 360 402 360L317 360L379 606C387 640 387 641 429 641L559 641C656 641 700 626 700 537C700 517 699 499 697 484C696 473 695 467 695 466C695 455 700 450 710 450C720 450 726 459 728 478L748 649C751 677 744 680 717 680L233 680C210 680 199 679 199 656Z" stroke="#fff" stroke-width="20" paint-order="stroke fill" stroke-linejoin="round"/></g><g data-mml-node="mn" transform="translate(676,-150) scale(0.707)" data-latex="2"><path data-c="32" d="M237 666C186 666 143 648 106 612C69 576 50 534 50 483C50 449 75 424 106 424C136 424 161 450 161 480C161 513 137 536 105 536C102 536 100 536 98 535C117 584 161 627 224 627C306 627 352 556 352 470C352 403 318 331 250 255L62 43C49 28 50 29 50 0L421 0L450 180L417 180C409 129 402 100 396 91C391 86 361 84 306 84L139 84L236 179C304 243 390 312 419 365C439 400 449 435 449 470C449 588 357 666 237 666Z" stroke="#fff" stroke-width="20" paint-order="stroke fill" stroke-linejoin="round"/></g></g><g data-mml-node="mo" data-latex="+" transform="translate(7382.2,0)"><path data-c="2B" d="M698 274L413 274L413 559C413 575 405 583 389 583C373 583 365 575 365 559L365 274L80 274C64 274 56 266 56 250C56 234 64 226 80 226L365 226L365-59C365-75 373-83 389-83C405-83 413-75 413-59L413 226L698 226C714 226 722 234 722 250C722 263 711 274 698 274Z" stroke="#fff" stroke-width="20" paint-order="stroke fill" stroke-linejoin="round"/></g><g data-mml-node="mn" data-latex="1" transform="translate(8382.4,0)"><path data-c="31" d="M269 666C228 624 168 603 89 603L89 564C141 564 184 572 217 588L217 82C217 64 213 52 204 47C195 42 170 39 130 39L95 39L95 0C120 2 174 3 257 3C340 3 394 2 419 0L419 39L384 39C343 39 318 42 310 47C302 52 297 64 297 82L297 636C297 660 295 666 269 666Z" stroke="#fff" stroke-width="20" paint-order="stroke fill" stroke-linejoin="round"/></g><g data-mml-node="mo" data-latex="\cdot" transform="translate(9104.7,0)"><path data-c="22C5" d="M192 250C192 279 168 303 139 303C110 303 86 279 86 250C86 221 110 197 139 197C168 197 192 221 192 250Z" stroke="#fff" stroke-width="20" paint-order="stroke fill" stroke-linejoin="round"/></g><g data-mml-node="msub" data-latex="F_0" transform="translate(9604.9,0)"><g data-mml-node="mi" data-latex="F"><path data-c="1D439" d="M199 656C199 646 210 641 231 641C271 641 291 637 291 628C291 625 289 618 286 605L156 82C150 60 140 47 126 42C119 40 101 39 70 39C48 39 38 37 38 16C38 5 44 0 57 0L187 3L335 0C351 0 359 8 359 23C359 40 348 39 322 39C278 39 253 41 247 46C244 47 243 51 243 56L307 321L400 321C446 321 478 319 478 281C478 268 476 252 471 233C470 230 469 226 468 222C468 211 473 206 484 206C489 207 496 214 503 229L557 444C559 452 560 458 560 461C557 470 551 475 544 475C536 475 530 467 526 452C516 414 502 390 486 378C470 366 442 360 402 360L317 360L379 606C387 640 387 641 429 641L559 641C656 641 700 626 700 537C700 517 699 499 697 484C696 473 695 467 695 466C695 455 700 450 710 450C720 450 726 459 728 478L748 649C751 677 744 680 717 680L233 680C210 680 199 679 199 656Z" stroke="#fff" stroke-width="20" paint-order="stroke fill" stroke-linejoin="round"/></g><g data-mml-node="mn" transform="translate(676,-150) scale(0.707)" data-latex="0"><path data-c="30" d="M249-22C390-22 460 92 460 320C460 473 428 575 365 625C330 652 291 666 250 666C109 666 39 551 39 320C39 136 88-22 249-22M361 524C368 489 371 425 371 332C371 240 367 172 360 128C347 48 310 8 249 8C226 8 203 17 182 34C155 57 139 104 132 176C129 201 128 253 128 332C128 419 131 480 136 513C145 568 163 603 191 618C213 630 232 636 249 636C314 636 350 583 361 524Z" stroke="#fff" stroke-width="20" paint-order="stroke fill" stroke-linejoin="round"/></g></g></g></g></g><g data-mml-node="mtr" transform="translate(0,627.5)"><g data-mml-node="mtd" transform="translate(5272,0)"/><g data-mml-node="mtd" transform="translate(5272,0)"><g data-mml-node="mstyle"><g data-mml-node="mi"/><g data-mml-node="mo" data-latex="=" transform="translate(277.8,0)"><path data-c="3D" d="M698 367L80 367C64 367 56 359 56 344C56 329 64 321 80 321L698 321C714 321 722 329 722 344C722 356 711 367 698 367M698 179L80 179C64 179 56 171 56 156C56 141 64 133 80 133L698 133C714 133 722 141 722 156C722 169 711 179 698 179Z" stroke="#fff" stroke-width="20" paint-order="stroke fill" stroke-linejoin="round"/></g><g data-mml-node="mn" data-latex="1" transform="translate(1333.6,0)"><path data-c="31" d="M269 666C228 624 168 603 89 603L89 564C141 564 184 572 217 588L217 82C217 64 213 52 204 47C195 42 170 39 130 39L95 39L95 0C120 2 174 3 257 3C340 3 394 2 419 0L419 39L384 39C343 39 318 42 310 47C302 52 297 64 297 82L297 636C297 660 295 666 269 666Z" stroke="#fff" stroke-width="20" paint-order="stroke fill" stroke-linejoin="round"/></g><g data-mml-node="mo" data-latex="\cdot" transform="translate(2055.8,0)"><path data-c="22C5" d="M192 250C192 279 168 303 139 303C110 303 86 279 86 250C86 221 110 197 139 197C168 197 192 221 192 250Z" stroke="#fff" stroke-width="20" paint-order="stroke fill" stroke-linejoin="round"/></g><g data-mml-node="mn" data-latex="8" transform="translate(2556,0)"><path data-c="38" d="M250 666C201 666 158 650 122 618C86 586 68 546 68 497C68 456 83 419 113 386C120 378 142 361 179 335C88 288 42 227 42 153C42 100 64 57 107 24C147-7 194-22 249-22C305-22 354-4 395 32C436 68 457 115 457 170C457 216 441 257 408 294C396 307 365 330 316 361C393 402 431 454 431 515C431 606 344 666 250 666M379 515C379 463 348 418 286 381L167 459C136 479 120 505 120 536C120 596 185 633 249 633C318 633 379 584 379 515M250 14C168 14 99 73 99 153C99 220 136 274 210 315L328 240C376 209 400 174 400 134C400 62 325 14 250 14Z" stroke="#fff" stroke-width="20" paint-order="stroke fill" stroke-linejoin="round"/></g><g data-mml-node="mo" data-latex="+" transform="translate(3278.2,0)"><path data-c="2B" d="M698 274L413 274L413 559C413 575 405 583 389 583C373 583 365 575 365 559L365 274L80 274C64 274 56 266 56 250C56 234 64 226 80 226L365 226L365-59C365-75 373-83 389-83C405-83 413-75 413-59L413 226L698 226C714 226 722 234 722 250C722 263 711 274 698 274Z" stroke="#fff" stroke-width="20" paint-order="stroke fill" stroke-linejoin="round"/></g><g data-mml-node="mn" data-latex="1" transform="translate(4278.4,0)"><path data-c="31" d="M269 666C228 624 168 603 89 603L89 564C141 564 184 572 217 588L217 82C217 64 213 52 204 47C195 42 170 39 130 39L95 39L95 0C120 2 174 3 257 3C340 3 394 2 419 0L419 39L384 39C343 39 318 42 310 47C302 52 297 64 297 82L297 636C297 660 295 666 269 666Z" stroke="#fff" stroke-width="20" paint-order="stroke fill" stroke-linejoin="round"/></g><g data-mml-node="mo" data-latex="\cdot" transform="translate(5000.7,0)"><path data-c="22C5" d="M192 250C192 279 168 303 139 303C110 303 86 279 86 250C86 221 110 197 139 197C168 197 192 221 192 250Z" stroke="#fff" stroke-width="20" paint-order="stroke fill" stroke-linejoin="round"/></g><g data-mml-node="mn" data-latex="3" transform="translate(5500.9,0)"><path data-c="33" d="M303 353C369 378 431 441 431 526C431 569 410 604 369 631C333 654 292 666 246 666C201 666 162 654 127 631C88 605 68 571 68 528C68 495 90 472 122 472C154 472 176 495 176 527C176 560 157 578 119 580C145 615 186 633 242 633C302 633 332 598 332 527C332 485 324 450 309 421C282 373 245 364 183 364C171 362 165 357 165 348C165 333 172 333 192 333L235 333C310 333 348 280 348 173C348 88 317 14 241 14C176 14 128 36 99 80C134 79 160 105 160 139C160 173 135 198 101 198C62 198 42 178 42 137C42 88 64 49 108 18C147-9 193-22 244-22C301-22 350-3 393 34C436 71 457 117 457 173C457 267 383 332 303 353Z" stroke="#fff" stroke-width="20" paint-order="stroke fill" stroke-linejoin="round"/></g><g data-mml-node="mo" data-latex="+" transform="translate(6223.1,0)"><path data-c="2B" d="M698 274L413 274L413 559C413 575 405 583 389 583C373 583 365 575 365 559L365 274L80 274C64 274 56 266 56 250C56 234 64 226 80 226L365 226L365-59C365-75 373-83 389-83C405-83 413-75 413-59L413 226L698 226C714 226 722 234 722 250C722 263 711 274 698 274Z" stroke="#fff" stroke-width="20" paint-order="stroke fill" stroke-linejoin="round"/></g><g data-mml-node="mn" data-latex="1" transform="translate(7223.3,0)"><path data-c="31" d="M269 666C228 624 168 603 89 603L89 564C141 564 184 572 217 588L217 82C217 64 213 52 204 47C195 42 170 39 130 39L95 39L95 0C120 2 174 3 257 3C340 3 394 2 419 0L419 39L384 39C343 39 318 42 310 47C302 52 297 64 297 82L297 636C297 660 295 666 269 666Z" stroke="#fff" stroke-width="20" paint-order="stroke fill" stroke-linejoin="round"/></g><g data-mml-node="mo" data-latex="\cdot" transform="translate(7945.6,0)"><path data-c="22C5" d="M192 250C192 279 168 303 139 303C110 303 86 279 86 250C86 221 110 197 139 197C168 197 192 221 192 250Z" stroke="#fff" stroke-width="20" paint-order="stroke fill" stroke-linejoin="round"/></g><g data-mml-node="mn" data-latex="1" transform="translate(8445.8,0)"><path data-c="31" d="M269 666C228 624 168 603 89 603L89 564C141 564 184 572 217 588L217 82C217 64 213 52 204 47C195 42 170 39 130 39L95 39L95 0C120 2 174 3 257 3C340 3 394 2 419 0L419 39L384 39C343 39 318 42 310 47C302 52 297 64 297 82L297 636C297 660 295 666 269 666Z" stroke="#fff" stroke-width="20" paint-order="stroke fill" stroke-linejoin="round"/></g></g></g></g><g data-mml-node="mtr" transform="translate(0,-672.5)"><g data-mml-node="mtd" transform="translate(5272,0)"/><g data-mml-node="mtd" transform="translate(5272,0)"><g data-mml-node="mstyle"><g data-mml-node="mi"/><g data-mml-node="mo" data-latex="=" transform="translate(277.8,0)"><path data-c="3D" d="M698 367L80 367C64 367 56 359 56 344C56 329 64 321 80 321L698 321C714 321 722 329 722 344C722 356 711 367 698 367M698 179L80 179C64 179 56 171 56 156C56 141 64 133 80 133L698 133C714 133 722 141 722 156C722 169 711 179 698 179Z" stroke="#fff" stroke-width="20" paint-order="stroke fill" stroke-linejoin="round"/></g><g data-mml-node="mn" data-latex="8" transform="translate(1333.6,0)"><path data-c="38" d="M250 666C201 666 158 650 122 618C86 586 68 546 68 497C68 456 83 419 113 386C120 378 142 361 179 335C88 288 42 227 42 153C42 100 64 57 107 24C147-7 194-22 249-22C305-22 354-4 395 32C436 68 457 115 457 170C457 216 441 257 408 294C396 307 365 330 316 361C393 402 431 454 431 515C431 606 344 666 250 666M379 515C379 463 348 418 286 381L167 459C136 479 120 505 120 536C120 596 185 633 249 633C318 633 379 584 379 515M250 14C168 14 99 73 99 153C99 220 136 274 210 315L328 240C376 209 400 174 400 134C400 62 325 14 250 14Z" stroke="#fff" stroke-width="20" paint-order="stroke fill" stroke-linejoin="round"/></g><g data-mml-node="mo" data-latex="+" transform="translate(2055.8,0)"><path data-c="2B" d="M698 274L413 274L413 559C413 575 405 583 389 583C373 583 365 575 365 559L365 274L80 274C64 274 56 266 56 250C56 234 64 226 80 226L365 226L365-59C365-75 373-83 389-83C405-83 413-75 413-59L413 226L698 226C714 226 722 234 722 250C722 263 711 274 698 274Z" stroke="#fff" stroke-width="20" paint-order="stroke fill" stroke-linejoin="round"/></g><g data-mml-node="mn" data-latex="3" transform="translate(3056,0)"><path data-c="33" d="M303 353C369 378 431 441 431 526C431 569 410 604 369 631C333 654 292 666 246 666C201 666 162 654 127 631C88 605 68 571 68 528C68 495 90 472 122 472C154 472 176 495 176 527C176 560 157 578 119 580C145 615 186 633 242 633C302 633 332 598 332 527C332 485 324 450 309 421C282 373 245 364 183 364C171 362 165 357 165 348C165 333 172 333 192 333L235 333C310 333 348 280 348 173C348 88 317 14 241 14C176 14 128 36 99 80C134 79 160 105 160 139C160 173 135 198 101 198C62 198 42 178 42 137C42 88 64 49 108 18C147-9 193-22 244-22C301-22 350-3 393 34C436 71 457 117 457 173C457 267 383 332 303 353Z" stroke="#fff" stroke-width="20" paint-order="stroke fill" stroke-linejoin="round"/></g><g data-mml-node="mo" data-latex="+" transform="translate(3778.2,0)"><path data-c="2B" d="M698 274L413 274L413 559C413 575 405 583 389 583C373 583 365 575 365 559L365 274L80 274C64 274 56 266 56 250C56 234 64 226 80 226L365 226L365-59C365-75 373-83 389-83C405-83 413-75 413-59L413 226L698 226C714 226 722 234 722 250C722 263 711 274 698 274Z" stroke="#fff" stroke-width="20" paint-order="stroke fill" stroke-linejoin="round"/></g><g data-mml-node="mn" data-latex="1" transform="translate(4778.4,0)"><path data-c="31" d="M269 666C228 624 168 603 89 603L89 564C141 564 184 572 217 588L217 82C217 64 213 52 204 47C195 42 170 39 130 39L95 39L95 0C120 2 174 3 257 3C340 3 394 2 419 0L419 39L384 39C343 39 318 42 310 47C302 52 297 64 297 82L297 636C297 660 295 666 269 666Z" stroke="#fff" stroke-width="20" paint-order="stroke fill" stroke-linejoin="round"/></g></g></g></g><g data-mml-node="mtr" transform="translate(0,-1972.5)"><g data-mml-node="mtd" transform="translate(5272,0)"/><g data-mml-node="mtd" transform="translate(5272,0)"><g data-mml-node="mstyle"><g data-mml-node="mi"/><g data-mml-node="mo" data-latex="=" transform="translate(277.8,0)"><path data-c="3D" d="M698 367L80 367C64 367 56 359 56 344C56 329 64 321 80 321L698 321C714 321 722 329 722 344C722 356 711 367 698 367M698 179L80 179C64 179 56 171 56 156C56 141 64 133 80 133L698 133C714 133 722 141 722 156C722 169 711 179 698 179Z" stroke="#fff" stroke-width="20" paint-order="stroke fill" stroke-linejoin="round"/></g><g data-mml-node="msub" data-latex="12_{10}" transform="translate(1333.6,0)"><g data-mml-node="mn" data-latex="12"><path data-c="31" d="M269 666C228 624 168 603 89 603L89 564C141 564 184 572 217 588L217 82C217 64 213 52 204 47C195 42 170 39 130 39L95 39L95 0C120 2 174 3 257 3C340 3 394 2 419 0L419 39L384 39C343 39 318 42 310 47C302 52 297 64 297 82L297 636C297 660 295 666 269 666Z" stroke="#fff" stroke-width="20" paint-order="stroke fill" stroke-linejoin="round"/><path data-c="32" d="M237 666C186 666 143 648 106 612C69 576 50 534 50 483C50 449 75 424 106 424C136 424 161 450 161 480C161 513 137 536 105 536C102 536 100 536 98 535C117 584 161 627 224 627C306 627 352 556 352 470C352 403 318 331 250 255L62 43C49 28 50 29 50 0L421 0L450 180L417 180C409 129 402 100 396 91C391 86 361 84 306 84L139 84L236 179C304 243 390 312 419 365C439 400 449 435 449 470C449 588 357 666 237 666Z" transform="translate(500,0)" stroke="#fff" stroke-width="20" paint-order="stroke fill" stroke-linejoin="round"/></g><g data-mml-node="TeXAtom" transform="translate(1033,-150) scale(0.707)" data-latex="{10}" data-mjx-texclass="ORD"><g data-mml-node="mn" data-latex="10"><path data-c="31" d="M269 666C228 624 168 603 89 603L89 564C141 564 184 572 217 588L217 82C217 64 213 52 204 47C195 42 170 39 130 39L95 39L95 0C120 2 174 3 257 3C340 3 394 2 419 0L419 39L384 39C343 39 318 42 310 47C302 52 297 64 297 82L297 636C297 660 295 666 269 666Z" stroke="#fff" stroke-width="20" paint-order="stroke fill" stroke-linejoin="round"/><path data-c="30" d="M249-22C390-22 460 92 460 320C460 473 428 575 365 625C330 652 291 666 250 666C109 666 39 551 39 320C39 136 88-22 249-22M361 524C368 489 371 425 371 332C371 240 367 172 360 128C347 48 310 8 249 8C226 8 203 17 182 34C155 57 139 104 132 176C129 201 128 253 128 332C128 419 131 480 136 513C145 568 163 603 191 618C213 630 232 636 249 636C314 636 350 583 361 524Z" transform="translate(500,0)" stroke="#fff" stroke-width="20" paint-order="stroke fill" stroke-linejoin="round"/></g></g></g></g></g></g></g></g></g></svg>