<svg style="vertical-align: -5.028ex;" xmlns="http://www.w3.org/2000/svg" width="53.04449761382911ex" height="11.20688724115856ex" role="img" focusable="false" viewBox="-20 -2742.5 23445.7 4985"><g stroke="currentColor" fill="currentColor" stroke-width="0" transform="scale(1,-1)"><g data-mml-node="math" data-latex="% 12 in fibonacci binary, or Fibbinary for short  \begin{align} 10101_{Fibbinary} &amp;= 1 \cdot F_4 + 0 \cdot F_3 + 1 \cdot F_2 + 0 \cdot F_1 + 1 \cdot F_0 \\ &amp;= 1 \cdot 8   + 0 \cdot 5   + 1 \cdot 3   + 0 \cdot 2   + 1 \cdot 1 \\ &amp;= 8 + 3 + 1 \\ &amp;= 12_{10} \end{align}"><g data-mml-node="mtable" data-latex="% 12 in fibonacci binary, or Fibbinary for short  \begin{align} 10101_{Fibbinary} &amp;= 1 \cdot F_4  + 0 \cdot F_3  + 1 \cdot F_2  + 0 \cdot F_1  + 1 \cdot F_0  \\ &amp;= 1 \cdot 8   + 0 \cdot 5   + 1 \cdot 3   + 0 \cdot 2   + 1 \cdot 1 \\ &amp;= 8 + 3 + 1 \\ &amp;= 12_{10} \end{align}"><g data-mml-node="mtr" transform="translate(0,1972.5)"><g data-mml-node="mtd"><g data-mml-node="msub" data-latex="10101_{F i b b i n a r y}"><g data-mml-node="mn" data-latex="10101"><path data-c="31" d="M269 666C228 624 168 603 89 603L89 564C141 564 184 572 217 588L217 82C217 64 213 52 204 47C195 42 170 39 130 39L95 39L95 0C120 2 174 3 257 3C340 3 394 2 419 0L419 39L384 39C343 39 318 42 310 47C302 52 297 64 297 82L297 636C297 660 295 666 269 666Z" stroke="#fff" stroke-width="20" paint-order="stroke fill" stroke-linejoin="round"/><path data-c="30" d="M249-22C390-22 460 92 460 320C460 473 428 575 365 625C330 652 291 666 250 666C109 666 39 551 39 320C39 136 88-22 249-22M361 524C368 489 371 425 371 332C371 240 367 172 360 128C347 48 310 8 249 8C226 8 203 17 182 34C155 57 139 104 132 176C129 201 128 253 128 332C128 419 131 480 136 513C145 568 163 603 191 618C213 630 232 636 249 636C314 636 350 583 361 524Z" transform="translate(500,0)" stroke="#fff" stroke-width="20" paint-order="stroke fill" stroke-linejoin="round"/><path data-c="31" d="M269 666C228 624 168 603 89 603L89 564C141 564 184 572 217 588L217 82C217 64 213 52 204 47C195 42 170 39 130 39L95 39L95 0C120 2 174 3 257 3C340 3 394 2 419 0L419 39L384 39C343 39 318 42 310 47C302 52 297 64 297 82L297 636C297 660 295 666 269 666Z" transform="translate(1000,0)" stroke="#fff" stroke-width="20" paint-order="stroke fill" stroke-linejoin="round"/><path data-c="30" d="M249-22C390-22 460 92 460 320C460 473 428 575 365 625C330 652 291 666 250 666C109 666 39 551 39 320C39 136 88-22 249-22M361 524C368 489 371 425 371 332C371 240 367 172 360 128C347 48 310 8 249 8C226 8 203 17 182 34C155 57 139 104 132 176C129 201 128 253 128 332C128 419 131 480 136 513C145 568 163 603 191 618C213 630 232 636 249 636C314 636 350 583 361 524Z" transform="translate(1500,0)" stroke="#fff" stroke-width="20" paint-order="stroke fill" stroke-linejoin="round"/><path data-c="31" d="M269 666C228 624 168 603 89 603L89 564C141 564 184 572 217 588L217 82C217 64 213 52 204 47C195 42 170 39 130 39L95 39L95 0C120 2 174 3 257 3C340 3 394 2 419 0L419 39L384 39C343 39 318 42 310 47C302 52 297 64 297 82L297 636C297 660 295 666 269 666Z" transform="translate(2000,0)" stroke="#fff" stroke-width="20" paint-order="stroke fill" stroke-linejoin="round"/></g><g data-mml-node="TeXAtom" transform="translate(2533,-150) scale(0.707)" data-latex="{F i b b i n a r y}" data-mjx-texclass="ORD"><g data-mml-node="mi" data-latex="F"><path data-c="1D439" d="M199 656C199 646 210 641 231 641C271 641 291 637 291 628C291 625 289 618 286 605L156 82C150 60 140 47 126 42C119 40 101 39 70 39C48 39 38 37 38 16C38 5 44 0 57 0L187 3L335 0C351 0 359 8 359 23C359 40 348 39 322 39C278 39 253 41 247 46C244 47 243 51 243 56L307 321L400 321C446 321 478 319 478 281C478 268 476 252 471 233C470 230 469 226 468 222C468 211 473 206 484 206C489 207 496 214 503 229L557 444C559 452 560 458 560 461C557 470 551 475 544 475C536 475 530 467 526 452C516 414 502 390 486 378C470 366 442 360 402 360L317 360L379 606C387 640 387 641 429 641L559 641C656 641 700 626 700 537C700 517 699 499 697 484C696 473 695 467 695 466C695 455 700 450 710 450C720 450 726 459 728 478L748 649C751 677 744 680 717 680L233 680C210 680 199 679 199 656Z" stroke="#fff" stroke-width="20" paint-order="stroke fill" stroke-linejoin="round"/></g><g data-mml-node="mi" data-latex="i" transform="translate(751,0)"><path data-c="1D456" d="M284 621C284 648 271 661 244 661C216 661 188 633 188 605C188 578 202 565 229 565C257 565 284 593 284 621M259 138C237 59 205 19 164 19C151 19 144 28 144 47C144 64 173 150 232 306C240 329 244 347 244 360C244 409 210 445 161 445C118 445 84 420 59 369C39 328 29 301 29 288C29 279 34 275 45 275C58 275 60 281 64 295C87 375 118 415 158 415C171 415 178 406 178 387C178 373 175 357 168 338C145 275 121 208 101 155C86 115 78 88 78 74C78 25 114-11 162-11C205-11 239 14 264 64C283 103 293 130 293 145C293 154 288 159 277 159C274 159 259 150 259 138Z" stroke="#fff" stroke-width="20" paint-order="stroke fill" stroke-linejoin="round"/></g><g data-mml-node="mi" data-latex="b" transform="translate(1096,0)"><path data-c="1D44F" d="M281 445C245 445 209 428 174 394L243 679C241 688 238 694 226 694C193 694 120 685 107 684C92 682 84 675 84 660C84 650 93 645 112 645C131 645 157 646 157 632C157 628 152 608 143 571L63 249C52 207 47 173 47 148C47 62 93-11 175-11C240-11 297 22 347 89C392 151 415 216 415 283C415 370 364 445 281 445M279 415C318 415 337 385 337 326C337 299 331 263 319 218C297 133 268 75 233 44C213 27 194 19 175 19C134 19 114 51 114 115C114 137 119 170 129 214L151 304C154 319 159 330 165 338C204 389 242 415 279 415Z" stroke="#fff" stroke-width="20" paint-order="stroke fill" stroke-linejoin="round"/></g><g data-mml-node="mi" data-latex="b" transform="translate(1525,0)"><path data-c="1D44F" d="M281 445C245 445 209 428 174 394L243 679C241 688 238 694 226 694C193 694 120 685 107 684C92 682 84 675 84 660C84 650 93 645 112 645C131 645 157 646 157 632C157 628 152 608 143 571L63 249C52 207 47 173 47 148C47 62 93-11 175-11C240-11 297 22 347 89C392 151 415 216 415 283C415 370 364 445 281 445M279 415C318 415 337 385 337 326C337 299 331 263 319 218C297 133 268 75 233 44C213 27 194 19 175 19C134 19 114 51 114 115C114 137 119 170 129 214L151 304C154 319 159 330 165 338C204 389 242 415 279 415Z" stroke="#fff" stroke-width="20" paint-order="stroke fill" stroke-linejoin="round"/></g><g data-mml-node="mi" data-latex="i" transform="translate(1954,0)"><path data-c="1D456" d="M284 621C284 648 271 661 244 661C216 661 188 633 188 605C188 578 202 565 229 565C257 565 284 593 284 621M259 138C237 59 205 19 164 19C151 19 144 28 144 47C144 64 173 150 232 306C240 329 244 347 244 360C244 409 210 445 161 445C118 445 84 420 59 369C39 328 29 301 29 288C29 279 34 275 45 275C58 275 60 281 64 295C87 375 118 415 158 415C171 415 178 406 178 387C178 373 175 357 168 338C145 275 121 208 101 155C86 115 78 88 78 74C78 25 114-11 162-11C205-11 239 14 264 64C283 103 293 130 293 145C293 154 288 159 277 159C274 159 259 150 259 138Z" stroke="#fff" stroke-width="20" paint-order="stroke fill" stroke-linejoin="round"/></g><g data-mml-node="mi" data-latex="n" transform="translate(2299,0)"><path data-c="1D45B" d="M537 137C514 58 481 18 440 18C427 18 420 28 420 47C420 61 426 84 438 115C478 224 498 296 498 333C498 403 451 442 381 442C322 442 271 416 230 363C222 407 187 442 136 442C80 442 58 390 44 345C34 313 29 294 29 287C29 278 34 273 45 273C50 273 53 274 56 276C61 285 64 292 65 299C83 375 106 413 133 413C151 413 160 399 160 371C160 358 155 331 144 290L87 63C84 50 78 24 78 19C78-1 89-11 111-11C130-11 144-1 151 19C153 24 159 49 170 92L191 181L221 295C232 318 249 341 270 365C299 397 335 413 378 413C411 413 427 391 427 348C427 310 406 234 363 120C356 102 353 87 353 74C353 25 390-11 438-11C482-11 517 14 542 64C561 104 571 131 571 144C571 153 566 158 555 158C552 158 537 149 537 137Z" stroke="#fff" stroke-width="20" paint-order="stroke fill" stroke-linejoin="round"/></g><g data-mml-node="mi" data-latex="a" transform="translate(2899,0)"><path data-c="1D44E" d="M498 144C498 153 493 158 482 158C474 158 468 151 465 137C445 58 421 18 394 18C377 18 368 32 368 60C368 73 372 97 381 132L438 357C443 376 445 387 445 392C445 412 434 422 412 422C391 422 377 410 370 387C349 424 319 442 281 442C216 442 159 409 109 343C63 281 40 217 40 150C40 63 91-11 175-11C218-11 260 12 300 58C311 20 345-11 392-11C461-11 482 70 498 144M341 374C350 353 355 339 355 330C355 326 354 321 353 314L304 122C301 111 294 99 285 87C248 41 212 18 177 18C138 18 118 48 118 107C118 131 124 167 136 215C157 300 187 357 224 388C244 405 263 413 282 413C309 413 329 400 341 374Z" stroke="#fff" stroke-width="20" paint-order="stroke fill" stroke-linejoin="round"/></g><g data-mml-node="mi" data-latex="r" transform="translate(3428,0)"><path data-c="1D45F" d="M436 374C436 416 395 442 351 442C302 442 261 419 227 372C217 411 183 442 136 442C95 442 65 410 44 345C34 312 29 293 29 287C29 278 34 273 45 273C50 273 53 274 56 276C61 285 64 292 65 299C83 375 106 413 133 413C150 413 159 399 159 371C159 358 154 331 144 290L87 63C84 50 78 24 78 19C78-1 89-11 110-11C130-11 143-1 150 19L169 91C180 134 187 162 190 175L221 303C223 311 231 324 244 343C271 381 302 413 351 413C363 413 373 411 382 406C352 397 337 378 337 351C337 325 351 312 378 312C411 312 436 341 436 374Z" stroke="#fff" stroke-width="20" paint-order="stroke fill" stroke-linejoin="round"/></g><g data-mml-node="mi" data-latex="y" transform="translate(3879,0)"><path data-c="1D466" d="M163 442C118 442 83 417 58 367C39 328 29 301 29 286C29 277 34 272 45 272C59 272 60 278 64 293C87 372 119 412 160 412C173 412 180 403 180 385C180 369 175 346 164 317C126 214 107 145 107 108C107 32 154-13 231-13C264-13 295-1 323 23C288-109 233-175 158-175C124-175 101-164 89-142C129-140 149-121 149-85C149-60 136-47 109-47C72-47 50-78 50-115C50-170 100-205 158-205C273-205 367-99 392-1L486 377C489 388 490 396 490 401C490 421 479 431 458 431C442 431 429 423 420 408C414 387 409 369 406 354L342 97C332 61 279 16 234 16C196 16 177 41 177 92C177 134 194 198 227 284C240 319 247 343 247 357C247 406 212 442 163 442Z" stroke="#fff" stroke-width="20" paint-order="stroke fill" stroke-linejoin="round"/></g></g></g></g><g data-mml-node="mtd" transform="translate(5672.3,0)"><g data-mml-node="mstyle"><g data-mml-node="mi"/><g data-mml-node="mo" data-latex="=" transform="translate(277.8,0)"><path data-c="3D" d="M698 367L80 367C64 367 56 359 56 344C56 329 64 321 80 321L698 321C714 321 722 329 722 344C722 356 711 367 698 367M698 179L80 179C64 179 56 171 56 156C56 141 64 133 80 133L698 133C714 133 722 141 722 156C722 169 711 179 698 179Z" stroke="#fff" stroke-width="20" paint-order="stroke fill" stroke-linejoin="round"/></g><g data-mml-node="mn" data-latex="1" transform="translate(1333.6,0)"><path data-c="31" d="M269 666C228 624 168 603 89 603L89 564C141 564 184 572 217 588L217 82C217 64 213 52 204 47C195 42 170 39 130 39L95 39L95 0C120 2 174 3 257 3C340 3 394 2 419 0L419 39L384 39C343 39 318 42 310 47C302 52 297 64 297 82L297 636C297 660 295 666 269 666Z" stroke="#fff" stroke-width="20" paint-order="stroke fill" stroke-linejoin="round"/></g><g data-mml-node="mo" data-latex="\cdot" transform="translate(2055.8,0)"><path data-c="22C5" d="M192 250C192 279 168 303 139 303C110 303 86 279 86 250C86 221 110 197 139 197C168 197 192 221 192 250Z" stroke="#fff" stroke-width="20" paint-order="stroke fill" stroke-linejoin="round"/></g><g data-mml-node="msub" data-latex="F_4" transform="translate(2556,0)"><g data-mml-node="mi" data-latex="F"><path data-c="1D439" d="M199 656C199 646 210 641 231 641C271 641 291 637 291 628C291 625 289 618 286 605L156 82C150 60 140 47 126 42C119 40 101 39 70 39C48 39 38 37 38 16C38 5 44 0 57 0L187 3L335 0C351 0 359 8 359 23C359 40 348 39 322 39C278 39 253 41 247 46C244 47 243 51 243 56L307 321L400 321C446 321 478 319 478 281C478 268 476 252 471 233C470 230 469 226 468 222C468 211 473 206 484 206C489 207 496 214 503 229L557 444C559 452 560 458 560 461C557 470 551 475 544 475C536 475 530 467 526 452C516 414 502 390 486 378C470 366 442 360 402 360L317 360L379 606C387 640 387 641 429 641L559 641C656 641 700 626 700 537C700 517 699 499 697 484C696 473 695 467 695 466C695 455 700 450 710 450C720 450 726 459 728 478L748 649C751 677 744 680 717 680L233 680C210 680 199 679 199 656Z" stroke="#fff" stroke-width="20" paint-order="stroke fill" stroke-linejoin="round"/></g><g data-mml-node="mn" transform="translate(676,-150) scale(0.707)" data-latex="4"><path data-c="34" d="M353 677C344 677 336 672 330 663L28 199L28 163L289 163L289 81C289 63 285 51 278 46C271 41 252 39 219 39L194 39L194 0C223 2 269 3 331 3C393 3 439 2 468 0L468 39L443 39C410 39 391 41 384 46C377 51 373 63 373 81L373 163L471 163L471 202L373 202L373 660C373 670 366 677 353 677M295 553L295 202L67 202Z" stroke="#fff" stroke-width="20" paint-order="stroke fill" stroke-linejoin="round"/></g></g><g data-mml-node="mo" data-latex="+" transform="translate(3857.8,0)"><path data-c="2B" d="M698 274L413 274L413 559C413 575 405 583 389 583C373 583 365 575 365 559L365 274L80 274C64 274 56 266 56 250C56 234 64 226 80 226L365 226L365-59C365-75 373-83 389-83C405-83 413-75 413-59L413 226L698 226C714 226 722 234 722 250C722 263 711 274 698 274Z" stroke="#fff" stroke-width="20" paint-order="stroke fill" stroke-linejoin="round"/></g><g data-mml-node="mn" data-latex="0" transform="translate(4858,0)"><path data-c="30" d="M249-22C390-22 460 92 460 320C460 473 428 575 365 625C330 652 291 666 250 666C109 666 39 551 39 320C39 136 88-22 249-22M361 524C368 489 371 425 371 332C371 240 367 172 360 128C347 48 310 8 249 8C226 8 203 17 182 34C155 57 139 104 132 176C129 201 128 253 128 332C128 419 131 480 136 513C145 568 163 603 191 618C213 630 232 636 249 636C314 636 350 583 361 524Z" stroke="#fff" stroke-width="20" paint-order="stroke fill" stroke-linejoin="round"/></g><g data-mml-node="mo" data-latex="\cdot" transform="translate(5580.2,0)"><path data-c="22C5" d="M192 250C192 279 168 303 139 303C110 303 86 279 86 250C86 221 110 197 139 197C168 197 192 221 192 250Z" stroke="#fff" stroke-width="20" paint-order="stroke fill" stroke-linejoin="round"/></g><g data-mml-node="msub" data-latex="F_3" transform="translate(6080.4,0)"><g data-mml-node="mi" data-latex="F"><path data-c="1D439" d="M199 656C199 646 210 641 231 641C271 641 291 637 291 628C291 625 289 618 286 605L156 82C150 60 140 47 126 42C119 40 101 39 70 39C48 39 38 37 38 16C38 5 44 0 57 0L187 3L335 0C351 0 359 8 359 23C359 40 348 39 322 39C278 39 253 41 247 46C244 47 243 51 243 56L307 321L400 321C446 321 478 319 478 281C478 268 476 252 471 233C470 230 469 226 468 222C468 211 473 206 484 206C489 207 496 214 503 229L557 444C559 452 560 458 560 461C557 470 551 475 544 475C536 475 530 467 526 452C516 414 502 390 486 378C470 366 442 360 402 360L317 360L379 606C387 640 387 641 429 641L559 641C656 641 700 626 700 537C700 517 699 499 697 484C696 473 695 467 695 466C695 455 700 450 710 450C720 450 726 459 728 478L748 649C751 677 744 680 717 680L233 680C210 680 199 679 199 656Z" stroke="#fff" stroke-width="20" paint-order="stroke fill" stroke-linejoin="round"/></g><g data-mml-node="mn" transform="translate(676,-150) scale(0.707)" data-latex="3"><path data-c="33" d="M303 353C369 378 431 441 431 526C431 569 410 604 369 631C333 654 292 666 246 666C201 666 162 654 127 631C88 605 68 571 68 528C68 495 90 472 122 472C154 472 176 495 176 527C176 560 157 578 119 580C145 615 186 633 242 633C302 633 332 598 332 527C332 485 324 450 309 421C282 373 245 364 183 364C171 362 165 357 165 348C165 333 172 333 192 333L235 333C310 333 348 280 348 173C348 88 317 14 241 14C176 14 128 36 99 80C134 79 160 105 160 139C160 173 135 198 101 198C62 198 42 178 42 137C42 88 64 49 108 18C147-9 193-22 244-22C301-22 350-3 393 34C436 71 457 117 457 173C457 267 383 332 303 353Z" stroke="#fff" stroke-width="20" paint-order="stroke fill" stroke-linejoin="round"/></g></g><g data-mml-node="mo" data-latex="+" transform="translate(7382.2,0)"><path data-c="2B" d="M698 274L413 274L413 559C413 575 405 583 389 583C373 583 365 575 365 559L365 274L80 274C64 274 56 266 56 250C56 234 64 226 80 226L365 226L365-59C365-75 373-83 389-83C405-83 413-75 413-59L413 226L698 226C714 226 722 234 722 250C722 263 711 274 698 274Z" stroke="#fff" stroke-width="20" paint-order="stroke fill" stroke-linejoin="round"/></g><g data-mml-node="mn" data-latex="1" transform="translate(8382.4,0)"><path data-c="31" d="M269 666C228 624 168 603 89 603L89 564C141 564 184 572 217 588L217 82C217 64 213 52 204 47C195 42 170 39 130 39L95 39L95 0C120 2 174 3 257 3C340 3 394 2 419 0L419 39L384 39C343 39 318 42 310 47C302 52 297 64 297 82L297 636C297 660 295 666 269 666Z" stroke="#fff" stroke-width="20" paint-order="stroke fill" stroke-linejoin="round"/></g><g data-mml-node="mo" data-latex="\cdot" transform="translate(9104.7,0)"><path data-c="22C5" d="M192 250C192 279 168 303 139 303C110 303 86 279 86 250C86 221 110 197 139 197C168 197 192 221 192 250Z" stroke="#fff" stroke-width="20" paint-order="stroke fill" stroke-linejoin="round"/></g><g data-mml-node="msub" data-latex="F_2" transform="translate(9604.9,0)"><g data-mml-node="mi" data-latex="F"><path data-c="1D439" d="M199 656C199 646 210 641 231 641C271 641 291 637 291 628C291 625 289 618 286 605L156 82C150 60 140 47 126 42C119 40 101 39 70 39C48 39 38 37 38 16C38 5 44 0 57 0L187 3L335 0C351 0 359 8 359 23C359 40 348 39 322 39C278 39 253 41 247 46C244 47 243 51 243 56L307 321L400 321C446 321 478 319 478 281C478 268 476 252 471 233C470 230 469 226 468 222C468 211 473 206 484 206C489 207 496 214 503 229L557 444C559 452 560 458 560 461C557 470 551 475 544 475C536 475 530 467 526 452C516 414 502 390 486 378C470 366 442 360 402 360L317 360L379 606C387 640 387 641 429 641L559 641C656 641 700 626 700 537C700 517 699 499 697 484C696 473 695 467 695 466C695 455 700 450 710 450C720 450 726 459 728 478L748 649C751 677 744 680 717 680L233 680C210 680 199 679 199 656Z" stroke="#fff" stroke-width="20" paint-order="stroke fill" stroke-linejoin="round"/></g><g data-mml-node="mn" transform="translate(676,-150) scale(0.707)" data-latex="2"><path data-c="32" d="M237 666C186 666 143 648 106 612C69 576 50 534 50 483C50 449 75 424 106 424C136 424 161 450 161 480C161 513 137 536 105 536C102 536 100 536 98 535C117 584 161 627 224 627C306 627 352 556 352 470C352 403 318 331 250 255L62 43C49 28 50 29 50 0L421 0L450 180L417 180C409 129 402 100 396 91C391 86 361 84 306 84L139 84L236 179C304 243 390 312 419 365C439 400 449 435 449 470C449 588 357 666 237 666Z" stroke="#fff" stroke-width="20" paint-order="stroke fill" stroke-linejoin="round"/></g></g><g data-mml-node="mo" data-latex="+" transform="translate(10906.7,0)"><path data-c="2B" d="M698 274L413 274L413 559C413 575 405 583 389 583C373 583 365 575 365 559L365 274L80 274C64 274 56 266 56 250C56 234 64 226 80 226L365 226L365-59C365-75 373-83 389-83C405-83 413-75 413-59L413 226L698 226C714 226 722 234 722 250C722 263 711 274 698 274Z" stroke="#fff" stroke-width="20" paint-order="stroke fill" stroke-linejoin="round"/></g><g data-mml-node="mn" data-latex="0" transform="translate(11906.9,0)"><path data-c="30" d="M249-22C390-22 460 92 460 320C460 473 428 575 365 625C330 652 291 666 250 666C109 666 39 551 39 320C39 136 88-22 249-22M361 524C368 489 371 425 371 332C371 240 367 172 360 128C347 48 310 8 249 8C226 8 203 17 182 34C155 57 139 104 132 176C129 201 128 253 128 332C128 419 131 480 136 513C145 568 163 603 191 618C213 630 232 636 249 636C314 636 350 583 361 524Z" stroke="#fff" stroke-width="20" paint-order="stroke fill" stroke-linejoin="round"/></g><g data-mml-node="mo" data-latex="\cdot" transform="translate(12629.1,0)"><path data-c="22C5" d="M192 250C192 279 168 303 139 303C110 303 86 279 86 250C86 221 110 197 139 197C168 197 192 221 192 250Z" stroke="#fff" stroke-width="20" paint-order="stroke fill" stroke-linejoin="round"/></g><g data-mml-node="msub" data-latex="F_1" transform="translate(13129.3,0)"><g data-mml-node="mi" data-latex="F"><path data-c="1D439" d="M199 656C199 646 210 641 231 641C271 641 291 637 291 628C291 625 289 618 286 605L156 82C150 60 140 47 126 42C119 40 101 39 70 39C48 39 38 37 38 16C38 5 44 0 57 0L187 3L335 0C351 0 359 8 359 23C359 40 348 39 322 39C278 39 253 41 247 46C244 47 243 51 243 56L307 321L400 321C446 321 478 319 478 281C478 268 476 252 471 233C470 230 469 226 468 222C468 211 473 206 484 206C489 207 496 214 503 229L557 444C559 452 560 458 560 461C557 470 551 475 544 475C536 475 530 467 526 452C516 414 502 390 486 378C470 366 442 360 402 360L317 360L379 606C387 640 387 641 429 641L559 641C656 641 700 626 700 537C700 517 699 499 697 484C696 473 695 467 695 466C695 455 700 450 710 450C720 450 726 459 728 478L748 649C751 677 744 680 717 680L233 680C210 680 199 679 199 656Z" stroke="#fff" stroke-width="20" paint-order="stroke fill" stroke-linejoin="round"/></g><g data-mml-node="mn" transform="translate(676,-150) scale(0.707)" data-latex="1"><path data-c="31" d="M269 666C228 624 168 603 89 603L89 564C141 564 184 572 217 588L217 82C217 64 213 52 204 47C195 42 170 39 130 39L95 39L95 0C120 2 174 3 257 3C340 3 394 2 419 0L419 39L384 39C343 39 318 42 310 47C302 52 297 64 297 82L297 636C297 660 295 666 269 666Z" stroke="#fff" stroke-width="20" paint-order="stroke fill" stroke-linejoin="round"/></g></g><g data-mml-node="mo" data-latex="+" transform="translate(14431.1,0)"><path data-c="2B" d="M698 274L413 274L413 559C413 575 405 583 389 583C373 583 365 575 365 559L365 274L80 274C64 274 56 266 56 250C56 234 64 226 80 226L365 226L365-59C365-75 373-83 389-83C405-83 413-75 413-59L413 226L698 226C714 226 722 234 722 250C722 263 711 274 698 274Z" stroke="#fff" stroke-width="20" paint-order="stroke fill" stroke-linejoin="round"/></g><g data-mml-node="mn" data-latex="1" transform="translate(15431.3,0)"><path data-c="31" d="M269 666C228 624 168 603 89 603L89 564C141 564 184 572 217 588L217 82C217 64 213 52 204 47C195 42 170 39 130 39L95 39L95 0C120 2 174 3 257 3C340 3 394 2 419 0L419 39L384 39C343 39 318 42 310 47C302 52 297 64 297 82L297 636C297 660 295 666 269 666Z" stroke="#fff" stroke-width="20" paint-order="stroke fill" stroke-linejoin="round"/></g><g data-mml-node="mo" data-latex="\cdot" transform="translate(16153.5,0)"><path data-c="22C5" d="M192 250C192 279 168 303 139 303C110 303 86 279 86 250C86 221 110 197 139 197C168 197 192 221 192 250Z" stroke="#fff" stroke-width="20" paint-order="stroke fill" stroke-linejoin="round"/></g><g data-mml-node="msub" data-latex="F_0" transform="translate(16653.8,0)"><g data-mml-node="mi" data-latex="F"><path data-c="1D439" d="M199 656C199 646 210 641 231 641C271 641 291 637 291 628C291 625 289 618 286 605L156 82C150 60 140 47 126 42C119 40 101 39 70 39C48 39 38 37 38 16C38 5 44 0 57 0L187 3L335 0C351 0 359 8 359 23C359 40 348 39 322 39C278 39 253 41 247 46C244 47 243 51 243 56L307 321L400 321C446 321 478 319 478 281C478 268 476 252 471 233C470 230 469 226 468 222C468 211 473 206 484 206C489 207 496 214 503 229L557 444C559 452 560 458 560 461C557 470 551 475 544 475C536 475 530 467 526 452C516 414 502 390 486 378C470 366 442 360 402 360L317 360L379 606C387 640 387 641 429 641L559 641C656 641 700 626 700 537C700 517 699 499 697 484C696 473 695 467 695 466C695 455 700 450 710 450C720 450 726 459 728 478L748 649C751 677 744 680 717 680L233 680C210 680 199 679 199 656Z" stroke="#fff" stroke-width="20" paint-order="stroke fill" stroke-linejoin="round"/></g><g data-mml-node="mn" transform="translate(676,-150) scale(0.707)" data-latex="0"><path data-c="30" d="M249-22C390-22 460 92 460 320C460 473 428 575 365 625C330 652 291 666 250 666C109 666 39 551 39 320C39 136 88-22 249-22M361 524C368 489 371 425 371 332C371 240 367 172 360 128C347 48 310 8 249 8C226 8 203 17 182 34C155 57 139 104 132 176C129 201 128 253 128 332C128 419 131 480 136 513C145 568 163 603 191 618C213 630 232 636 249 636C314 636 350 583 361 524Z" stroke="#fff" stroke-width="20" paint-order="stroke fill" stroke-linejoin="round"/></g></g></g></g></g><g data-mml-node="mtr" transform="translate(0,627.5)"><g data-mml-node="mtd" transform="translate(5672.3,0)"/><g data-mml-node="mtd" transform="translate(5672.3,0)"><g data-mml-node="mstyle"><g data-mml-node="mi"/><g data-mml-node="mo" data-latex="=" transform="translate(277.8,0)"><path data-c="3D" d="M698 367L80 367C64 367 56 359 56 344C56 329 64 321 80 321L698 321C714 321 722 329 722 344C722 356 711 367 698 367M698 179L80 179C64 179 56 171 56 156C56 141 64 133 80 133L698 133C714 133 722 141 722 156C722 169 711 179 698 179Z" stroke="#fff" stroke-width="20" paint-order="stroke fill" stroke-linejoin="round"/></g><g data-mml-node="mn" data-latex="1" transform="translate(1333.6,0)"><path data-c="31" d="M269 666C228 624 168 603 89 603L89 564C141 564 184 572 217 588L217 82C217 64 213 52 204 47C195 42 170 39 130 39L95 39L95 0C120 2 174 3 257 3C340 3 394 2 419 0L419 39L384 39C343 39 318 42 310 47C302 52 297 64 297 82L297 636C297 660 295 666 269 666Z" stroke="#fff" stroke-width="20" paint-order="stroke fill" stroke-linejoin="round"/></g><g data-mml-node="mo" data-latex="\cdot" transform="translate(2055.8,0)"><path data-c="22C5" d="M192 250C192 279 168 303 139 303C110 303 86 279 86 250C86 221 110 197 139 197C168 197 192 221 192 250Z" stroke="#fff" stroke-width="20" paint-order="stroke fill" stroke-linejoin="round"/></g><g data-mml-node="mn" data-latex="8" transform="translate(2556,0)"><path data-c="38" d="M250 666C201 666 158 650 122 618C86 586 68 546 68 497C68 456 83 419 113 386C120 378 142 361 179 335C88 288 42 227 42 153C42 100 64 57 107 24C147-7 194-22 249-22C305-22 354-4 395 32C436 68 457 115 457 170C457 216 441 257 408 294C396 307 365 330 316 361C393 402 431 454 431 515C431 606 344 666 250 666M379 515C379 463 348 418 286 381L167 459C136 479 120 505 120 536C120 596 185 633 249 633C318 633 379 584 379 515M250 14C168 14 99 73 99 153C99 220 136 274 210 315L328 240C376 209 400 174 400 134C400 62 325 14 250 14Z" stroke="#fff" stroke-width="20" paint-order="stroke fill" stroke-linejoin="round"/></g><g data-mml-node="mo" data-latex="+" transform="translate(3278.2,0)"><path data-c="2B" d="M698 274L413 274L413 559C413 575 405 583 389 583C373 583 365 575 365 559L365 274L80 274C64 274 56 266 56 250C56 234 64 226 80 226L365 226L365-59C365-75 373-83 389-83C405-83 413-75 413-59L413 226L698 226C714 226 722 234 722 250C722 263 711 274 698 274Z" stroke="#fff" stroke-width="20" paint-order="stroke fill" stroke-linejoin="round"/></g><g data-mml-node="mn" data-latex="0" transform="translate(4278.4,0)"><path data-c="30" d="M249-22C390-22 460 92 460 320C460 473 428 575 365 625C330 652 291 666 250 666C109 666 39 551 39 320C39 136 88-22 249-22M361 524C368 489 371 425 371 332C371 240 367 172 360 128C347 48 310 8 249 8C226 8 203 17 182 34C155 57 139 104 132 176C129 201 128 253 128 332C128 419 131 480 136 513C145 568 163 603 191 618C213 630 232 636 249 636C314 636 350 583 361 524Z" stroke="#fff" stroke-width="20" paint-order="stroke fill" stroke-linejoin="round"/></g><g data-mml-node="mo" data-latex="\cdot" transform="translate(5000.7,0)"><path data-c="22C5" d="M192 250C192 279 168 303 139 303C110 303 86 279 86 250C86 221 110 197 139 197C168 197 192 221 192 250Z" stroke="#fff" stroke-width="20" paint-order="stroke fill" stroke-linejoin="round"/></g><g data-mml-node="mn" data-latex="5" transform="translate(5500.9,0)"><path data-c="35" d="M118 315C123 315 129 319 134 326C164 371 205 393 257 393C292 393 319 373 337 332C348 305 354 264 354 209C354 146 346 102 331 76C306 35 272 14 229 14C162 14 109 62 91 114C94 113 96 114 100 114C130 114 155 137 155 167C155 198 130 219 100 219C65 219 50 200 50 163C50 63 131-22 231-22C292-22 344 0 386 44C428 88 449 141 449 202C449 260 432 310 398 353C361 400 315 423 259 423C212 423 171 408 138 378L138 556C165 548 191 544 218 544C264 544 304 555 338 578C369 597 390 616 402 634C408 642 411 648 411 651C411 661 406 666 396 666C341 645 294 634 256 634C211 634 168 643 127 662C122 664 118 665 114 665C105 665 100 656 100 637L100 345C100 324 100 315 118 315Z" stroke="#fff" stroke-width="20" paint-order="stroke fill" stroke-linejoin="round"/></g><g data-mml-node="mo" data-latex="+" transform="translate(6223.1,0)"><path data-c="2B" d="M698 274L413 274L413 559C413 575 405 583 389 583C373 583 365 575 365 559L365 274L80 274C64 274 56 266 56 250C56 234 64 226 80 226L365 226L365-59C365-75 373-83 389-83C405-83 413-75 413-59L413 226L698 226C714 226 722 234 722 250C722 263 711 274 698 274Z" stroke="#fff" stroke-width="20" paint-order="stroke fill" stroke-linejoin="round"/></g><g data-mml-node="mn" data-latex="1" transform="translate(7223.3,0)"><path data-c="31" d="M269 666C228 624 168 603 89 603L89 564C141 564 184 572 217 588L217 82C217 64 213 52 204 47C195 42 170 39 130 39L95 39L95 0C120 2 174 3 257 3C340 3 394 2 419 0L419 39L384 39C343 39 318 42 310 47C302 52 297 64 297 82L297 636C297 660 295 666 269 666Z" stroke="#fff" stroke-width="20" paint-order="stroke fill" stroke-linejoin="round"/></g><g data-mml-node="mo" data-latex="\cdot" transform="translate(7945.6,0)"><path data-c="22C5" d="M192 250C192 279 168 303 139 303C110 303 86 279 86 250C86 221 110 197 139 197C168 197 192 221 192 250Z" stroke="#fff" stroke-width="20" paint-order="stroke fill" stroke-linejoin="round"/></g><g data-mml-node="mn" data-latex="3" transform="translate(8445.8,0)"><path data-c="33" d="M303 353C369 378 431 441 431 526C431 569 410 604 369 631C333 654 292 666 246 666C201 666 162 654 127 631C88 605 68 571 68 528C68 495 90 472 122 472C154 472 176 495 176 527C176 560 157 578 119 580C145 615 186 633 242 633C302 633 332 598 332 527C332 485 324 450 309 421C282 373 245 364 183 364C171 362 165 357 165 348C165 333 172 333 192 333L235 333C310 333 348 280 348 173C348 88 317 14 241 14C176 14 128 36 99 80C134 79 160 105 160 139C160 173 135 198 101 198C62 198 42 178 42 137C42 88 64 49 108 18C147-9 193-22 244-22C301-22 350-3 393 34C436 71 457 117 457 173C457 267 383 332 303 353Z" stroke="#fff" stroke-width="20" paint-order="stroke fill" stroke-linejoin="round"/></g><g data-mml-node="mo" data-latex="+" transform="translate(9168,0)"><path data-c="2B" d="M698 274L413 274L413 559C413 575 405 583 389 583C373 583 365 575 365 559L365 274L80 274C64 274 56 266 56 250C56 234 64 226 80 226L365 226L365-59C365-75 373-83 389-83C405-83 413-75 413-59L413 226L698 226C714 226 722 234 722 250C722 263 711 274 698 274Z" stroke="#fff" stroke-width="20" paint-order="stroke fill" stroke-linejoin="round"/></g><g data-mml-node="mn" data-latex="0" transform="translate(10168.2,0)"><path data-c="30" d="M249-22C390-22 460 92 460 320C460 473 428 575 365 625C330 652 291 666 250 666C109 666 39 551 39 320C39 136 88-22 249-22M361 524C368 489 371 425 371 332C371 240 367 172 360 128C347 48 310 8 249 8C226 8 203 17 182 34C155 57 139 104 132 176C129 201 128 253 128 332C128 419 131 480 136 513C145 568 163 603 191 618C213 630 232 636 249 636C314 636 350 583 361 524Z" stroke="#fff" stroke-width="20" paint-order="stroke fill" stroke-linejoin="round"/></g><g data-mml-node="mo" data-latex="\cdot" transform="translate(10890.4,0)"><path data-c="22C5" d="M192 250C192 279 168 303 139 303C110 303 86 279 86 250C86 221 110 197 139 197C168 197 192 221 192 250Z" stroke="#fff" stroke-width="20" paint-order="stroke fill" stroke-linejoin="round"/></g><g data-mml-node="mn" data-latex="2" transform="translate(11390.7,0)"><path data-c="32" d="M237 666C186 666 143 648 106 612C69 576 50 534 50 483C50 449 75 424 106 424C136 424 161 450 161 480C161 513 137 536 105 536C102 536 100 536 98 535C117 584 161 627 224 627C306 627 352 556 352 470C352 403 318 331 250 255L62 43C49 28 50 29 50 0L421 0L450 180L417 180C409 129 402 100 396 91C391 86 361 84 306 84L139 84L236 179C304 243 390 312 419 365C439 400 449 435 449 470C449 588 357 666 237 666Z" stroke="#fff" stroke-width="20" paint-order="stroke fill" stroke-linejoin="round"/></g><g data-mml-node="mo" data-latex="+" transform="translate(12112.9,0)"><path data-c="2B" d="M698 274L413 274L413 559C413 575 405 583 389 583C373 583 365 575 365 559L365 274L80 274C64 274 56 266 56 250C56 234 64 226 80 226L365 226L365-59C365-75 373-83 389-83C405-83 413-75 413-59L413 226L698 226C714 226 722 234 722 250C722 263 711 274 698 274Z" stroke="#fff" stroke-width="20" paint-order="stroke fill" stroke-linejoin="round"/></g><g data-mml-node="mn" data-latex="1" transform="translate(13113.1,0)"><path data-c="31" d="M269 666C228 624 168 603 89 603L89 564C141 564 184 572 217 588L217 82C217 64 213 52 204 47C195 42 170 39 130 39L95 39L95 0C120 2 174 3 257 3C340 3 394 2 419 0L419 39L384 39C343 39 318 42 310 47C302 52 297 64 297 82L297 636C297 660 295 666 269 666Z" stroke="#fff" stroke-width="20" paint-order="stroke fill" stroke-linejoin="round"/></g><g data-mml-node="mo" data-latex="\cdot" transform="translate(13835.3,0)"><path data-c="22C5" d="M192 250C192 279 168 303 139 303C110 303 86 279 86 250C86 221 110 197 139 197C168 197 192 221 192 250Z" stroke="#fff" stroke-width="20" paint-order="stroke fill" stroke-linejoin="round"/></g><g data-mml-node="mn" data-latex="1" transform="translate(14335.6,0)"><path data-c="31" d="M269 666C228 624 168 603 89 603L89 564C141 564 184 572 217 588L217 82C217 64 213 52 204 47C195 42 170 39 130 39L95 39L95 0C120 2 174 3 257 3C340 3 394 2 419 0L419 39L384 39C343 39 318 42 310 47C302 52 297 64 297 82L297 636C297 660 295 666 269 666Z" stroke="#fff" stroke-width="20" paint-order="stroke fill" stroke-linejoin="round"/></g></g></g></g><g data-mml-node="mtr" transform="translate(0,-672.5)"><g data-mml-node="mtd" transform="translate(5672.3,0)"/><g data-mml-node="mtd" transform="translate(5672.3,0)"><g data-mml-node="mstyle"><g data-mml-node="mi"/><g data-mml-node="mo" data-latex="=" transform="translate(277.8,0)"><path data-c="3D" d="M698 367L80 367C64 367 56 359 56 344C56 329 64 321 80 321L698 321C714 321 722 329 722 344C722 356 711 367 698 367M698 179L80 179C64 179 56 171 56 156C56 141 64 133 80 133L698 133C714 133 722 141 722 156C722 169 711 179 698 179Z" stroke="#fff" stroke-width="20" paint-order="stroke fill" stroke-linejoin="round"/></g><g data-mml-node="mn" data-latex="8" transform="translate(1333.6,0)"><path data-c="38" d="M250 666C201 666 158 650 122 618C86 586 68 546 68 497C68 456 83 419 113 386C120 378 142 361 179 335C88 288 42 227 42 153C42 100 64 57 107 24C147-7 194-22 249-22C305-22 354-4 395 32C436 68 457 115 457 170C457 216 441 257 408 294C396 307 365 330 316 361C393 402 431 454 431 515C431 606 344 666 250 666M379 515C379 463 348 418 286 381L167 459C136 479 120 505 120 536C120 596 185 633 249 633C318 633 379 584 379 515M250 14C168 14 99 73 99 153C99 220 136 274 210 315L328 240C376 209 400 174 400 134C400 62 325 14 250 14Z" stroke="#fff" stroke-width="20" paint-order="stroke fill" stroke-linejoin="round"/></g><g data-mml-node="mo" data-latex="+" transform="translate(2055.8,0)"><path data-c="2B" d="M698 274L413 274L413 559C413 575 405 583 389 583C373 583 365 575 365 559L365 274L80 274C64 274 56 266 56 250C56 234 64 226 80 226L365 226L365-59C365-75 373-83 389-83C405-83 413-75 413-59L413 226L698 226C714 226 722 234 722 250C722 263 711 274 698 274Z" stroke="#fff" stroke-width="20" paint-order="stroke fill" stroke-linejoin="round"/></g><g data-mml-node="mn" data-latex="3" transform="translate(3056,0)"><path data-c="33" d="M303 353C369 378 431 441 431 526C431 569 410 604 369 631C333 654 292 666 246 666C201 666 162 654 127 631C88 605 68 571 68 528C68 495 90 472 122 472C154 472 176 495 176 527C176 560 157 578 119 580C145 615 186 633 242 633C302 633 332 598 332 527C332 485 324 450 309 421C282 373 245 364 183 364C171 362 165 357 165 348C165 333 172 333 192 333L235 333C310 333 348 280 348 173C348 88 317 14 241 14C176 14 128 36 99 80C134 79 160 105 160 139C160 173 135 198 101 198C62 198 42 178 42 137C42 88 64 49 108 18C147-9 193-22 244-22C301-22 350-3 393 34C436 71 457 117 457 173C457 267 383 332 303 353Z" stroke="#fff" stroke-width="20" paint-order="stroke fill" stroke-linejoin="round"/></g><g data-mml-node="mo" data-latex="+" transform="translate(3778.2,0)"><path data-c="2B" d="M698 274L413 274L413 559C413 575 405 583 389 583C373 583 365 575 365 559L365 274L80 274C64 274 56 266 56 250C56 234 64 226 80 226L365 226L365-59C365-75 373-83 389-83C405-83 413-75 413-59L413 226L698 226C714 226 722 234 722 250C722 263 711 274 698 274Z" stroke="#fff" stroke-width="20" paint-order="stroke fill" stroke-linejoin="round"/></g><g data-mml-node="mn" data-latex="1" transform="translate(4778.4,0)"><path data-c="31" d="M269 666C228 624 168 603 89 603L89 564C141 564 184 572 217 588L217 82C217 64 213 52 204 47C195 42 170 39 130 39L95 39L95 0C120 2 174 3 257 3C340 3 394 2 419 0L419 39L384 39C343 39 318 42 310 47C302 52 297 64 297 82L297 636C297 660 295 666 269 666Z" stroke="#fff" stroke-width="20" paint-order="stroke fill" stroke-linejoin="round"/></g></g></g></g><g data-mml-node="mtr" transform="translate(0,-1972.5)"><g data-mml-node="mtd" transform="translate(5672.3,0)"/><g data-mml-node="mtd" transform="translate(5672.3,0)"><g data-mml-node="mstyle"><g data-mml-node="mi"/><g data-mml-node="mo" data-latex="=" transform="translate(277.8,0)"><path data-c="3D" d="M698 367L80 367C64 367 56 359 56 344C56 329 64 321 80 321L698 321C714 321 722 329 722 344C722 356 711 367 698 367M698 179L80 179C64 179 56 171 56 156C56 141 64 133 80 133L698 133C714 133 722 141 722 156C722 169 711 179 698 179Z" stroke="#fff" stroke-width="20" paint-order="stroke fill" stroke-linejoin="round"/></g><g data-mml-node="msub" data-latex="12_{10}" transform="translate(1333.6,0)"><g data-mml-node="mn" data-latex="12"><path data-c="31" d="M269 666C228 624 168 603 89 603L89 564C141 564 184 572 217 588L217 82C217 64 213 52 204 47C195 42 170 39 130 39L95 39L95 0C120 2 174 3 257 3C340 3 394 2 419 0L419 39L384 39C343 39 318 42 310 47C302 52 297 64 297 82L297 636C297 660 295 666 269 666Z" stroke="#fff" stroke-width="20" paint-order="stroke fill" stroke-linejoin="round"/><path data-c="32" d="M237 666C186 666 143 648 106 612C69 576 50 534 50 483C50 449 75 424 106 424C136 424 161 450 161 480C161 513 137 536 105 536C102 536 100 536 98 535C117 584 161 627 224 627C306 627 352 556 352 470C352 403 318 331 250 255L62 43C49 28 50 29 50 0L421 0L450 180L417 180C409 129 402 100 396 91C391 86 361 84 306 84L139 84L236 179C304 243 390 312 419 365C439 400 449 435 449 470C449 588 357 666 237 666Z" transform="translate(500,0)" stroke="#fff" stroke-width="20" paint-order="stroke fill" stroke-linejoin="round"/></g><g data-mml-node="TeXAtom" transform="translate(1033,-150) scale(0.707)" data-latex="{10}" data-mjx-texclass="ORD"><g data-mml-node="mn" data-latex="10"><path data-c="31" d="M269 666C228 624 168 603 89 603L89 564C141 564 184 572 217 588L217 82C217 64 213 52 204 47C195 42 170 39 130 39L95 39L95 0C120 2 174 3 257 3C340 3 394 2 419 0L419 39L384 39C343 39 318 42 310 47C302 52 297 64 297 82L297 636C297 660 295 666 269 666Z" stroke="#fff" stroke-width="20" paint-order="stroke fill" stroke-linejoin="round"/><path data-c="30" d="M249-22C390-22 460 92 460 320C460 473 428 575 365 625C330 652 291 666 250 666C109 666 39 551 39 320C39 136 88-22 249-22M361 524C368 489 371 425 371 332C371 240 367 172 360 128C347 48 310 8 249 8C226 8 203 17 182 34C155 57 139 104 132 176C129 201 128 253 128 332C128 419 131 480 136 513C145 568 163 603 191 618C213 630 232 636 249 636C314 636 350 583 361 524Z" transform="translate(500,0)" stroke="#fff" stroke-width="20" paint-order="stroke fill" stroke-linejoin="round"/></g></g></g></g></g></g></g></g></g></svg>