<svg style="vertical-align: -5.129ex;" xmlns="http://www.w3.org/2000/svg" width="36.45549734343698ex" height="11.417206569682048ex" role="img" focusable="false" viewBox="-20 -2787 16113.4 5073.9"><g stroke="currentColor" fill="currentColor" stroke-width="0" transform="scale(1,-1)"><g data-mml-node="math" data-latex="% 12 in binary % 12_{10} = 1 \cdot 2^3 + 1 \cdot 2^2 + 0 \cdot 2^1 + 0 \cdot 2^0 = 1100_{2}  \begin{align} 1100_{2} &amp;= 1 \cdot 2^3 + 1 \cdot 2^2 + 0 \cdot 2^1 + 0 \cdot 2^0 \\ &amp;= 1 \cdot 8 + 1 \cdot 4 + 0 \cdot 2 + 0 \cdot 1 \\ &amp;= 8 + 4 + 0 + 0 \\ &amp;= 12_{10} \end{align}"><g data-mml-node="mtable" data-latex="% 12 in binary % 12_{10} = 1 \cdot 2^3 + 1 \cdot 2^2 + 0 \cdot 2^1 + 0 \cdot 2^0 = 1100_{2}  \begin{align} 1100_{2} &amp;= 1 \cdot 2^3  + 1 \cdot 2^2  + 0 \cdot 2^1  + 0 \cdot 2^0  \\ &amp;= 1 \cdot 8 + 1 \cdot 4 + 0 \cdot 2 + 0 \cdot 1 \\ &amp;= 8 + 4 + 0 + 0 \\ &amp;= 12_{10} \end{align}"><g data-mml-node="mtr" transform="translate(0,1883)"><g data-mml-node="mtd"><g data-mml-node="msub" data-latex="1100_{2}"><g data-mml-node="mn" data-latex="1100"><path data-c="31" d="M269 666C228 624 168 603 89 603L89 564C141 564 184 572 217 588L217 82C217 64 213 52 204 47C195 42 170 39 130 39L95 39L95 0C120 2 174 3 257 3C340 3 394 2 419 0L419 39L384 39C343 39 318 42 310 47C302 52 297 64 297 82L297 636C297 660 295 666 269 666Z" stroke="#fff" stroke-width="20" paint-order="stroke fill" stroke-linejoin="round"/><path data-c="31" d="M269 666C228 624 168 603 89 603L89 564C141 564 184 572 217 588L217 82C217 64 213 52 204 47C195 42 170 39 130 39L95 39L95 0C120 2 174 3 257 3C340 3 394 2 419 0L419 39L384 39C343 39 318 42 310 47C302 52 297 64 297 82L297 636C297 660 295 666 269 666Z" transform="translate(500,0)" stroke="#fff" stroke-width="20" paint-order="stroke fill" stroke-linejoin="round"/><path data-c="30" d="M249-22C390-22 460 92 460 320C460 473 428 575 365 625C330 652 291 666 250 666C109 666 39 551 39 320C39 136 88-22 249-22M361 524C368 489 371 425 371 332C371 240 367 172 360 128C347 48 310 8 249 8C226 8 203 17 182 34C155 57 139 104 132 176C129 201 128 253 128 332C128 419 131 480 136 513C145 568 163 603 191 618C213 630 232 636 249 636C314 636 350 583 361 524Z" transform="translate(1000,0)" stroke="#fff" stroke-width="20" paint-order="stroke fill" stroke-linejoin="round"/><path data-c="30" d="M249-22C390-22 460 92 460 320C460 473 428 575 365 625C330 652 291 666 250 666C109 666 39 551 39 320C39 136 88-22 249-22M361 524C368 489 371 425 371 332C371 240 367 172 360 128C347 48 310 8 249 8C226 8 203 17 182 34C155 57 139 104 132 176C129 201 128 253 128 332C128 419 131 480 136 513C145 568 163 603 191 618C213 630 232 636 249 636C314 636 350 583 361 524Z" transform="translate(1500,0)" stroke="#fff" stroke-width="20" paint-order="stroke fill" stroke-linejoin="round"/></g><g data-mml-node="TeXAtom" transform="translate(2033,-150) scale(0.707)" data-latex="{2}" data-mjx-texclass="ORD"><g data-mml-node="mn" data-latex="2"><path data-c="32" d="M237 666C186 666 143 648 106 612C69 576 50 534 50 483C50 449 75 424 106 424C136 424 161 450 161 480C161 513 137 536 105 536C102 536 100 536 98 535C117 584 161 627 224 627C306 627 352 556 352 470C352 403 318 331 250 255L62 43C49 28 50 29 50 0L421 0L450 180L417 180C409 129 402 100 396 91C391 86 361 84 306 84L139 84L236 179C304 243 390 312 419 365C439 400 449 435 449 470C449 588 357 666 237 666Z" stroke="#fff" stroke-width="20" paint-order="stroke fill" stroke-linejoin="round"/></g></g></g></g><g data-mml-node="mtd" transform="translate(2436.6,0)"><g data-mml-node="mstyle"><g data-mml-node="mi"/><g data-mml-node="mo" data-latex="=" transform="translate(277.8,0)"><path data-c="3D" d="M698 367L80 367C64 367 56 359 56 344C56 329 64 321 80 321L698 321C714 321 722 329 722 344C722 356 711 367 698 367M698 179L80 179C64 179 56 171 56 156C56 141 64 133 80 133L698 133C714 133 722 141 722 156C722 169 711 179 698 179Z" stroke="#fff" stroke-width="20" paint-order="stroke fill" stroke-linejoin="round"/></g><g data-mml-node="mn" data-latex="1" transform="translate(1333.6,0)"><path data-c="31" d="M269 666C228 624 168 603 89 603L89 564C141 564 184 572 217 588L217 82C217 64 213 52 204 47C195 42 170 39 130 39L95 39L95 0C120 2 174 3 257 3C340 3 394 2 419 0L419 39L384 39C343 39 318 42 310 47C302 52 297 64 297 82L297 636C297 660 295 666 269 666Z" stroke="#fff" stroke-width="20" paint-order="stroke fill" stroke-linejoin="round"/></g><g data-mml-node="mo" data-latex="\cdot" transform="translate(2055.8,0)"><path data-c="22C5" d="M192 250C192 279 168 303 139 303C110 303 86 279 86 250C86 221 110 197 139 197C168 197 192 221 192 250Z" stroke="#fff" stroke-width="20" paint-order="stroke fill" stroke-linejoin="round"/></g><g data-mml-node="msup" data-latex="2^3" transform="translate(2556,0)"><g data-mml-node="mn" data-latex="2"><path data-c="32" d="M237 666C186 666 143 648 106 612C69 576 50 534 50 483C50 449 75 424 106 424C136 424 161 450 161 480C161 513 137 536 105 536C102 536 100 536 98 535C117 584 161 627 224 627C306 627 352 556 352 470C352 403 318 331 250 255L62 43C49 28 50 29 50 0L421 0L450 180L417 180C409 129 402 100 396 91C391 86 361 84 306 84L139 84L236 179C304 243 390 312 419 365C439 400 449 435 449 470C449 588 357 666 237 666Z" stroke="#fff" stroke-width="20" paint-order="stroke fill" stroke-linejoin="round"/></g><g data-mml-node="mn" transform="translate(533,413) scale(0.707)" data-latex="3"><path data-c="33" d="M303 353C369 378 431 441 431 526C431 569 410 604 369 631C333 654 292 666 246 666C201 666 162 654 127 631C88 605 68 571 68 528C68 495 90 472 122 472C154 472 176 495 176 527C176 560 157 578 119 580C145 615 186 633 242 633C302 633 332 598 332 527C332 485 324 450 309 421C282 373 245 364 183 364C171 362 165 357 165 348C165 333 172 333 192 333L235 333C310 333 348 280 348 173C348 88 317 14 241 14C176 14 128 36 99 80C134 79 160 105 160 139C160 173 135 198 101 198C62 198 42 178 42 137C42 88 64 49 108 18C147-9 193-22 244-22C301-22 350-3 393 34C436 71 457 117 457 173C457 267 383 332 303 353Z" stroke="#fff" stroke-width="20" paint-order="stroke fill" stroke-linejoin="round"/></g></g><g data-mml-node="mo" data-latex="+" transform="translate(3714.8,0)"><path data-c="2B" d="M698 274L413 274L413 559C413 575 405 583 389 583C373 583 365 575 365 559L365 274L80 274C64 274 56 266 56 250C56 234 64 226 80 226L365 226L365-59C365-75 373-83 389-83C405-83 413-75 413-59L413 226L698 226C714 226 722 234 722 250C722 263 711 274 698 274Z" stroke="#fff" stroke-width="20" paint-order="stroke fill" stroke-linejoin="round"/></g><g data-mml-node="mn" data-latex="1" transform="translate(4715,0)"><path data-c="31" d="M269 666C228 624 168 603 89 603L89 564C141 564 184 572 217 588L217 82C217 64 213 52 204 47C195 42 170 39 130 39L95 39L95 0C120 2 174 3 257 3C340 3 394 2 419 0L419 39L384 39C343 39 318 42 310 47C302 52 297 64 297 82L297 636C297 660 295 666 269 666Z" stroke="#fff" stroke-width="20" paint-order="stroke fill" stroke-linejoin="round"/></g><g data-mml-node="mo" data-latex="\cdot" transform="translate(5437.2,0)"><path data-c="22C5" d="M192 250C192 279 168 303 139 303C110 303 86 279 86 250C86 221 110 197 139 197C168 197 192 221 192 250Z" stroke="#fff" stroke-width="20" paint-order="stroke fill" stroke-linejoin="round"/></g><g data-mml-node="msup" data-latex="2^2" transform="translate(5937.4,0)"><g data-mml-node="mn" data-latex="2"><path data-c="32" d="M237 666C186 666 143 648 106 612C69 576 50 534 50 483C50 449 75 424 106 424C136 424 161 450 161 480C161 513 137 536 105 536C102 536 100 536 98 535C117 584 161 627 224 627C306 627 352 556 352 470C352 403 318 331 250 255L62 43C49 28 50 29 50 0L421 0L450 180L417 180C409 129 402 100 396 91C391 86 361 84 306 84L139 84L236 179C304 243 390 312 419 365C439 400 449 435 449 470C449 588 357 666 237 666Z" stroke="#fff" stroke-width="20" paint-order="stroke fill" stroke-linejoin="round"/></g><g data-mml-node="mn" transform="translate(533,413) scale(0.707)" data-latex="2"><path data-c="32" d="M237 666C186 666 143 648 106 612C69 576 50 534 50 483C50 449 75 424 106 424C136 424 161 450 161 480C161 513 137 536 105 536C102 536 100 536 98 535C117 584 161 627 224 627C306 627 352 556 352 470C352 403 318 331 250 255L62 43C49 28 50 29 50 0L421 0L450 180L417 180C409 129 402 100 396 91C391 86 361 84 306 84L139 84L236 179C304 243 390 312 419 365C439 400 449 435 449 470C449 588 357 666 237 666Z" stroke="#fff" stroke-width="20" paint-order="stroke fill" stroke-linejoin="round"/></g></g><g data-mml-node="mo" data-latex="+" transform="translate(7096.2,0)"><path data-c="2B" d="M698 274L413 274L413 559C413 575 405 583 389 583C373 583 365 575 365 559L365 274L80 274C64 274 56 266 56 250C56 234 64 226 80 226L365 226L365-59C365-75 373-83 389-83C405-83 413-75 413-59L413 226L698 226C714 226 722 234 722 250C722 263 711 274 698 274Z" stroke="#fff" stroke-width="20" paint-order="stroke fill" stroke-linejoin="round"/></g><g data-mml-node="mn" data-latex="0" transform="translate(8096.4,0)"><path data-c="30" d="M249-22C390-22 460 92 460 320C460 473 428 575 365 625C330 652 291 666 250 666C109 666 39 551 39 320C39 136 88-22 249-22M361 524C368 489 371 425 371 332C371 240 367 172 360 128C347 48 310 8 249 8C226 8 203 17 182 34C155 57 139 104 132 176C129 201 128 253 128 332C128 419 131 480 136 513C145 568 163 603 191 618C213 630 232 636 249 636C314 636 350 583 361 524Z" stroke="#fff" stroke-width="20" paint-order="stroke fill" stroke-linejoin="round"/></g><g data-mml-node="mo" data-latex="\cdot" transform="translate(8818.7,0)"><path data-c="22C5" d="M192 250C192 279 168 303 139 303C110 303 86 279 86 250C86 221 110 197 139 197C168 197 192 221 192 250Z" stroke="#fff" stroke-width="20" paint-order="stroke fill" stroke-linejoin="round"/></g><g data-mml-node="msup" data-latex="2^1" transform="translate(9318.9,0)"><g data-mml-node="mn" data-latex="2"><path data-c="32" d="M237 666C186 666 143 648 106 612C69 576 50 534 50 483C50 449 75 424 106 424C136 424 161 450 161 480C161 513 137 536 105 536C102 536 100 536 98 535C117 584 161 627 224 627C306 627 352 556 352 470C352 403 318 331 250 255L62 43C49 28 50 29 50 0L421 0L450 180L417 180C409 129 402 100 396 91C391 86 361 84 306 84L139 84L236 179C304 243 390 312 419 365C439 400 449 435 449 470C449 588 357 666 237 666Z" stroke="#fff" stroke-width="20" paint-order="stroke fill" stroke-linejoin="round"/></g><g data-mml-node="mn" transform="translate(533,413) scale(0.707)" data-latex="1"><path data-c="31" d="M269 666C228 624 168 603 89 603L89 564C141 564 184 572 217 588L217 82C217 64 213 52 204 47C195 42 170 39 130 39L95 39L95 0C120 2 174 3 257 3C340 3 394 2 419 0L419 39L384 39C343 39 318 42 310 47C302 52 297 64 297 82L297 636C297 660 295 666 269 666Z" stroke="#fff" stroke-width="20" paint-order="stroke fill" stroke-linejoin="round"/></g></g><g data-mml-node="mo" data-latex="+" transform="translate(10477.7,0)"><path data-c="2B" d="M698 274L413 274L413 559C413 575 405 583 389 583C373 583 365 575 365 559L365 274L80 274C64 274 56 266 56 250C56 234 64 226 80 226L365 226L365-59C365-75 373-83 389-83C405-83 413-75 413-59L413 226L698 226C714 226 722 234 722 250C722 263 711 274 698 274Z" stroke="#fff" stroke-width="20" paint-order="stroke fill" stroke-linejoin="round"/></g><g data-mml-node="mn" data-latex="0" transform="translate(11477.9,0)"><path data-c="30" d="M249-22C390-22 460 92 460 320C460 473 428 575 365 625C330 652 291 666 250 666C109 666 39 551 39 320C39 136 88-22 249-22M361 524C368 489 371 425 371 332C371 240 367 172 360 128C347 48 310 8 249 8C226 8 203 17 182 34C155 57 139 104 132 176C129 201 128 253 128 332C128 419 131 480 136 513C145 568 163 603 191 618C213 630 232 636 249 636C314 636 350 583 361 524Z" stroke="#fff" stroke-width="20" paint-order="stroke fill" stroke-linejoin="round"/></g><g data-mml-node="mo" data-latex="\cdot" transform="translate(12200.1,0)"><path data-c="22C5" d="M192 250C192 279 168 303 139 303C110 303 86 279 86 250C86 221 110 197 139 197C168 197 192 221 192 250Z" stroke="#fff" stroke-width="20" paint-order="stroke fill" stroke-linejoin="round"/></g><g data-mml-node="msup" data-latex="2^0" transform="translate(12700.3,0)"><g data-mml-node="mn" data-latex="2"><path data-c="32" d="M237 666C186 666 143 648 106 612C69 576 50 534 50 483C50 449 75 424 106 424C136 424 161 450 161 480C161 513 137 536 105 536C102 536 100 536 98 535C117 584 161 627 224 627C306 627 352 556 352 470C352 403 318 331 250 255L62 43C49 28 50 29 50 0L421 0L450 180L417 180C409 129 402 100 396 91C391 86 361 84 306 84L139 84L236 179C304 243 390 312 419 365C439 400 449 435 449 470C449 588 357 666 237 666Z" stroke="#fff" stroke-width="20" paint-order="stroke fill" stroke-linejoin="round"/></g><g data-mml-node="mn" transform="translate(533,413) scale(0.707)" data-latex="0"><path data-c="30" d="M249-22C390-22 460 92 460 320C460 473 428 575 365 625C330 652 291 666 250 666C109 666 39 551 39 320C39 136 88-22 249-22M361 524C368 489 371 425 371 332C371 240 367 172 360 128C347 48 310 8 249 8C226 8 203 17 182 34C155 57 139 104 132 176C129 201 128 253 128 332C128 419 131 480 136 513C145 568 163 603 191 618C213 630 232 636 249 636C314 636 350 583 361 524Z" stroke="#fff" stroke-width="20" paint-order="stroke fill" stroke-linejoin="round"/></g></g></g></g></g><g data-mml-node="mtr" transform="translate(0,583)"><g data-mml-node="mtd" transform="translate(2436.6,0)"/><g data-mml-node="mtd" transform="translate(2436.6,0)"><g data-mml-node="mstyle"><g data-mml-node="mi"/><g data-mml-node="mo" data-latex="=" transform="translate(277.8,0)"><path data-c="3D" d="M698 367L80 367C64 367 56 359 56 344C56 329 64 321 80 321L698 321C714 321 722 329 722 344C722 356 711 367 698 367M698 179L80 179C64 179 56 171 56 156C56 141 64 133 80 133L698 133C714 133 722 141 722 156C722 169 711 179 698 179Z" stroke="#fff" stroke-width="20" paint-order="stroke fill" stroke-linejoin="round"/></g><g data-mml-node="mn" data-latex="1" transform="translate(1333.6,0)"><path data-c="31" d="M269 666C228 624 168 603 89 603L89 564C141 564 184 572 217 588L217 82C217 64 213 52 204 47C195 42 170 39 130 39L95 39L95 0C120 2 174 3 257 3C340 3 394 2 419 0L419 39L384 39C343 39 318 42 310 47C302 52 297 64 297 82L297 636C297 660 295 666 269 666Z" stroke="#fff" stroke-width="20" paint-order="stroke fill" stroke-linejoin="round"/></g><g data-mml-node="mo" data-latex="\cdot" transform="translate(2055.8,0)"><path data-c="22C5" d="M192 250C192 279 168 303 139 303C110 303 86 279 86 250C86 221 110 197 139 197C168 197 192 221 192 250Z" stroke="#fff" stroke-width="20" paint-order="stroke fill" stroke-linejoin="round"/></g><g data-mml-node="mn" data-latex="8" transform="translate(2556,0)"><path data-c="38" d="M250 666C201 666 158 650 122 618C86 586 68 546 68 497C68 456 83 419 113 386C120 378 142 361 179 335C88 288 42 227 42 153C42 100 64 57 107 24C147-7 194-22 249-22C305-22 354-4 395 32C436 68 457 115 457 170C457 216 441 257 408 294C396 307 365 330 316 361C393 402 431 454 431 515C431 606 344 666 250 666M379 515C379 463 348 418 286 381L167 459C136 479 120 505 120 536C120 596 185 633 249 633C318 633 379 584 379 515M250 14C168 14 99 73 99 153C99 220 136 274 210 315L328 240C376 209 400 174 400 134C400 62 325 14 250 14Z" stroke="#fff" stroke-width="20" paint-order="stroke fill" stroke-linejoin="round"/></g><g data-mml-node="mo" data-latex="+" transform="translate(3278.2,0)"><path data-c="2B" d="M698 274L413 274L413 559C413 575 405 583 389 583C373 583 365 575 365 559L365 274L80 274C64 274 56 266 56 250C56 234 64 226 80 226L365 226L365-59C365-75 373-83 389-83C405-83 413-75 413-59L413 226L698 226C714 226 722 234 722 250C722 263 711 274 698 274Z" stroke="#fff" stroke-width="20" paint-order="stroke fill" stroke-linejoin="round"/></g><g data-mml-node="mn" data-latex="1" transform="translate(4278.4,0)"><path data-c="31" d="M269 666C228 624 168 603 89 603L89 564C141 564 184 572 217 588L217 82C217 64 213 52 204 47C195 42 170 39 130 39L95 39L95 0C120 2 174 3 257 3C340 3 394 2 419 0L419 39L384 39C343 39 318 42 310 47C302 52 297 64 297 82L297 636C297 660 295 666 269 666Z" stroke="#fff" stroke-width="20" paint-order="stroke fill" stroke-linejoin="round"/></g><g data-mml-node="mo" data-latex="\cdot" transform="translate(5000.7,0)"><path data-c="22C5" d="M192 250C192 279 168 303 139 303C110 303 86 279 86 250C86 221 110 197 139 197C168 197 192 221 192 250Z" stroke="#fff" stroke-width="20" paint-order="stroke fill" stroke-linejoin="round"/></g><g data-mml-node="mn" data-latex="4" transform="translate(5500.9,0)"><path data-c="34" d="M353 677C344 677 336 672 330 663L28 199L28 163L289 163L289 81C289 63 285 51 278 46C271 41 252 39 219 39L194 39L194 0C223 2 269 3 331 3C393 3 439 2 468 0L468 39L443 39C410 39 391 41 384 46C377 51 373 63 373 81L373 163L471 163L471 202L373 202L373 660C373 670 366 677 353 677M295 553L295 202L67 202Z" stroke="#fff" stroke-width="20" paint-order="stroke fill" stroke-linejoin="round"/></g><g data-mml-node="mo" data-latex="+" transform="translate(6223.1,0)"><path data-c="2B" d="M698 274L413 274L413 559C413 575 405 583 389 583C373 583 365 575 365 559L365 274L80 274C64 274 56 266 56 250C56 234 64 226 80 226L365 226L365-59C365-75 373-83 389-83C405-83 413-75 413-59L413 226L698 226C714 226 722 234 722 250C722 263 711 274 698 274Z" stroke="#fff" stroke-width="20" paint-order="stroke fill" stroke-linejoin="round"/></g><g data-mml-node="mn" data-latex="0" transform="translate(7223.3,0)"><path data-c="30" d="M249-22C390-22 460 92 460 320C460 473 428 575 365 625C330 652 291 666 250 666C109 666 39 551 39 320C39 136 88-22 249-22M361 524C368 489 371 425 371 332C371 240 367 172 360 128C347 48 310 8 249 8C226 8 203 17 182 34C155 57 139 104 132 176C129 201 128 253 128 332C128 419 131 480 136 513C145 568 163 603 191 618C213 630 232 636 249 636C314 636 350 583 361 524Z" stroke="#fff" stroke-width="20" paint-order="stroke fill" stroke-linejoin="round"/></g><g data-mml-node="mo" data-latex="\cdot" transform="translate(7945.6,0)"><path data-c="22C5" d="M192 250C192 279 168 303 139 303C110 303 86 279 86 250C86 221 110 197 139 197C168 197 192 221 192 250Z" stroke="#fff" stroke-width="20" paint-order="stroke fill" stroke-linejoin="round"/></g><g data-mml-node="mn" data-latex="2" transform="translate(8445.8,0)"><path data-c="32" d="M237 666C186 666 143 648 106 612C69 576 50 534 50 483C50 449 75 424 106 424C136 424 161 450 161 480C161 513 137 536 105 536C102 536 100 536 98 535C117 584 161 627 224 627C306 627 352 556 352 470C352 403 318 331 250 255L62 43C49 28 50 29 50 0L421 0L450 180L417 180C409 129 402 100 396 91C391 86 361 84 306 84L139 84L236 179C304 243 390 312 419 365C439 400 449 435 449 470C449 588 357 666 237 666Z" stroke="#fff" stroke-width="20" paint-order="stroke fill" stroke-linejoin="round"/></g><g data-mml-node="mo" data-latex="+" transform="translate(9168,0)"><path data-c="2B" d="M698 274L413 274L413 559C413 575 405 583 389 583C373 583 365 575 365 559L365 274L80 274C64 274 56 266 56 250C56 234 64 226 80 226L365 226L365-59C365-75 373-83 389-83C405-83 413-75 413-59L413 226L698 226C714 226 722 234 722 250C722 263 711 274 698 274Z" stroke="#fff" stroke-width="20" paint-order="stroke fill" stroke-linejoin="round"/></g><g data-mml-node="mn" data-latex="0" transform="translate(10168.2,0)"><path data-c="30" d="M249-22C390-22 460 92 460 320C460 473 428 575 365 625C330 652 291 666 250 666C109 666 39 551 39 320C39 136 88-22 249-22M361 524C368 489 371 425 371 332C371 240 367 172 360 128C347 48 310 8 249 8C226 8 203 17 182 34C155 57 139 104 132 176C129 201 128 253 128 332C128 419 131 480 136 513C145 568 163 603 191 618C213 630 232 636 249 636C314 636 350 583 361 524Z" stroke="#fff" stroke-width="20" paint-order="stroke fill" stroke-linejoin="round"/></g><g data-mml-node="mo" data-latex="\cdot" transform="translate(10890.4,0)"><path data-c="22C5" d="M192 250C192 279 168 303 139 303C110 303 86 279 86 250C86 221 110 197 139 197C168 197 192 221 192 250Z" stroke="#fff" stroke-width="20" paint-order="stroke fill" stroke-linejoin="round"/></g><g data-mml-node="mn" data-latex="1" transform="translate(11390.7,0)"><path data-c="31" d="M269 666C228 624 168 603 89 603L89 564C141 564 184 572 217 588L217 82C217 64 213 52 204 47C195 42 170 39 130 39L95 39L95 0C120 2 174 3 257 3C340 3 394 2 419 0L419 39L384 39C343 39 318 42 310 47C302 52 297 64 297 82L297 636C297 660 295 666 269 666Z" stroke="#fff" stroke-width="20" paint-order="stroke fill" stroke-linejoin="round"/></g></g></g></g><g data-mml-node="mtr" transform="translate(0,-717)"><g data-mml-node="mtd" transform="translate(2436.6,0)"/><g data-mml-node="mtd" transform="translate(2436.6,0)"><g data-mml-node="mstyle"><g data-mml-node="mi"/><g data-mml-node="mo" data-latex="=" transform="translate(277.8,0)"><path data-c="3D" d="M698 367L80 367C64 367 56 359 56 344C56 329 64 321 80 321L698 321C714 321 722 329 722 344C722 356 711 367 698 367M698 179L80 179C64 179 56 171 56 156C56 141 64 133 80 133L698 133C714 133 722 141 722 156C722 169 711 179 698 179Z" stroke="#fff" stroke-width="20" paint-order="stroke fill" stroke-linejoin="round"/></g><g data-mml-node="mn" data-latex="8" transform="translate(1333.6,0)"><path data-c="38" d="M250 666C201 666 158 650 122 618C86 586 68 546 68 497C68 456 83 419 113 386C120 378 142 361 179 335C88 288 42 227 42 153C42 100 64 57 107 24C147-7 194-22 249-22C305-22 354-4 395 32C436 68 457 115 457 170C457 216 441 257 408 294C396 307 365 330 316 361C393 402 431 454 431 515C431 606 344 666 250 666M379 515C379 463 348 418 286 381L167 459C136 479 120 505 120 536C120 596 185 633 249 633C318 633 379 584 379 515M250 14C168 14 99 73 99 153C99 220 136 274 210 315L328 240C376 209 400 174 400 134C400 62 325 14 250 14Z" stroke="#fff" stroke-width="20" paint-order="stroke fill" stroke-linejoin="round"/></g><g data-mml-node="mo" data-latex="+" transform="translate(2055.8,0)"><path data-c="2B" d="M698 274L413 274L413 559C413 575 405 583 389 583C373 583 365 575 365 559L365 274L80 274C64 274 56 266 56 250C56 234 64 226 80 226L365 226L365-59C365-75 373-83 389-83C405-83 413-75 413-59L413 226L698 226C714 226 722 234 722 250C722 263 711 274 698 274Z" stroke="#fff" stroke-width="20" paint-order="stroke fill" stroke-linejoin="round"/></g><g data-mml-node="mn" data-latex="4" transform="translate(3056,0)"><path data-c="34" d="M353 677C344 677 336 672 330 663L28 199L28 163L289 163L289 81C289 63 285 51 278 46C271 41 252 39 219 39L194 39L194 0C223 2 269 3 331 3C393 3 439 2 468 0L468 39L443 39C410 39 391 41 384 46C377 51 373 63 373 81L373 163L471 163L471 202L373 202L373 660C373 670 366 677 353 677M295 553L295 202L67 202Z" stroke="#fff" stroke-width="20" paint-order="stroke fill" stroke-linejoin="round"/></g><g data-mml-node="mo" data-latex="+" transform="translate(3778.2,0)"><path data-c="2B" d="M698 274L413 274L413 559C413 575 405 583 389 583C373 583 365 575 365 559L365 274L80 274C64 274 56 266 56 250C56 234 64 226 80 226L365 226L365-59C365-75 373-83 389-83C405-83 413-75 413-59L413 226L698 226C714 226 722 234 722 250C722 263 711 274 698 274Z" stroke="#fff" stroke-width="20" paint-order="stroke fill" stroke-linejoin="round"/></g><g data-mml-node="mn" data-latex="0" transform="translate(4778.4,0)"><path data-c="30" d="M249-22C390-22 460 92 460 320C460 473 428 575 365 625C330 652 291 666 250 666C109 666 39 551 39 320C39 136 88-22 249-22M361 524C368 489 371 425 371 332C371 240 367 172 360 128C347 48 310 8 249 8C226 8 203 17 182 34C155 57 139 104 132 176C129 201 128 253 128 332C128 419 131 480 136 513C145 568 163 603 191 618C213 630 232 636 249 636C314 636 350 583 361 524Z" stroke="#fff" stroke-width="20" paint-order="stroke fill" stroke-linejoin="round"/></g><g data-mml-node="mo" data-latex="+" transform="translate(5500.7,0)"><path data-c="2B" d="M698 274L413 274L413 559C413 575 405 583 389 583C373 583 365 575 365 559L365 274L80 274C64 274 56 266 56 250C56 234 64 226 80 226L365 226L365-59C365-75 373-83 389-83C405-83 413-75 413-59L413 226L698 226C714 226 722 234 722 250C722 263 711 274 698 274Z" stroke="#fff" stroke-width="20" paint-order="stroke fill" stroke-linejoin="round"/></g><g data-mml-node="mn" data-latex="0" transform="translate(6500.9,0)"><path data-c="30" d="M249-22C390-22 460 92 460 320C460 473 428 575 365 625C330 652 291 666 250 666C109 666 39 551 39 320C39 136 88-22 249-22M361 524C368 489 371 425 371 332C371 240 367 172 360 128C347 48 310 8 249 8C226 8 203 17 182 34C155 57 139 104 132 176C129 201 128 253 128 332C128 419 131 480 136 513C145 568 163 603 191 618C213 630 232 636 249 636C314 636 350 583 361 524Z" stroke="#fff" stroke-width="20" paint-order="stroke fill" stroke-linejoin="round"/></g></g></g></g><g data-mml-node="mtr" transform="translate(0,-2017)"><g data-mml-node="mtd" transform="translate(2436.6,0)"/><g data-mml-node="mtd" transform="translate(2436.6,0)"><g data-mml-node="mstyle"><g data-mml-node="mi"/><g data-mml-node="mo" data-latex="=" transform="translate(277.8,0)"><path data-c="3D" d="M698 367L80 367C64 367 56 359 56 344C56 329 64 321 80 321L698 321C714 321 722 329 722 344C722 356 711 367 698 367M698 179L80 179C64 179 56 171 56 156C56 141 64 133 80 133L698 133C714 133 722 141 722 156C722 169 711 179 698 179Z" stroke="#fff" stroke-width="20" paint-order="stroke fill" stroke-linejoin="round"/></g><g data-mml-node="msub" data-latex="12_{10}" transform="translate(1333.6,0)"><g data-mml-node="mn" data-latex="12"><path data-c="31" d="M269 666C228 624 168 603 89 603L89 564C141 564 184 572 217 588L217 82C217 64 213 52 204 47C195 42 170 39 130 39L95 39L95 0C120 2 174 3 257 3C340 3 394 2 419 0L419 39L384 39C343 39 318 42 310 47C302 52 297 64 297 82L297 636C297 660 295 666 269 666Z" stroke="#fff" stroke-width="20" paint-order="stroke fill" stroke-linejoin="round"/><path data-c="32" d="M237 666C186 666 143 648 106 612C69 576 50 534 50 483C50 449 75 424 106 424C136 424 161 450 161 480C161 513 137 536 105 536C102 536 100 536 98 535C117 584 161 627 224 627C306 627 352 556 352 470C352 403 318 331 250 255L62 43C49 28 50 29 50 0L421 0L450 180L417 180C409 129 402 100 396 91C391 86 361 84 306 84L139 84L236 179C304 243 390 312 419 365C439 400 449 435 449 470C449 588 357 666 237 666Z" transform="translate(500,0)" stroke="#fff" stroke-width="20" paint-order="stroke fill" stroke-linejoin="round"/></g><g data-mml-node="TeXAtom" transform="translate(1033,-150) scale(0.707)" data-latex="{10}" data-mjx-texclass="ORD"><g data-mml-node="mn" data-latex="10"><path data-c="31" d="M269 666C228 624 168 603 89 603L89 564C141 564 184 572 217 588L217 82C217 64 213 52 204 47C195 42 170 39 130 39L95 39L95 0C120 2 174 3 257 3C340 3 394 2 419 0L419 39L384 39C343 39 318 42 310 47C302 52 297 64 297 82L297 636C297 660 295 666 269 666Z" stroke="#fff" stroke-width="20" paint-order="stroke fill" stroke-linejoin="round"/><path data-c="30" d="M249-22C390-22 460 92 460 320C460 473 428 575 365 625C330 652 291 666 250 666C109 666 39 551 39 320C39 136 88-22 249-22M361 524C368 489 371 425 371 332C371 240 367 172 360 128C347 48 310 8 249 8C226 8 203 17 182 34C155 57 139 104 132 176C129 201 128 253 128 332C128 419 131 480 136 513C145 568 163 603 191 618C213 630 232 636 249 636C314 636 350 583 361 524Z" transform="translate(500,0)" stroke="#fff" stroke-width="20" paint-order="stroke fill" stroke-linejoin="round"/></g></g></g></g></g></g></g></g></g></svg>