<svg style="vertical-align: -0.188ex;" xmlns="http://www.w3.org/2000/svg" width="10.841496632996632ex" height="2.197958303078484ex" role="img" focusable="false" viewBox="-20 -900.4 4792 1003.4"><g stroke="currentColor" fill="currentColor" stroke-width="0" transform="scale(1,-1)"><g data-mml-node="math" data-latex="e^{i\pi} + 1 = 0"><g data-mml-node="msup" data-latex="e^{i\pi}"><g data-mml-node="mi" data-latex="e"><path data-c="1D452" d="M124 129C124 153 129 186 139 227L188 227C253 227 303 235 339 250C372 264 394 284 405 309C412 326 415 342 415 355C415 410 363 442 307 442C268 442 229 432 190 412C113 372 46 281 46 171C46 69 105-11 204-11C257-11 304 2 345 27C379 48 404 69 420 90C427 99 430 106 430 109C430 120 425 126 414 126C409 126 404 122 398 114C365 70 324 42 277 30C246 22 223 18 206 18C149 18 124 72 124 129M375 355C375 289 311 256 182 256L147 256C166 322 194 366 232 387C262 404 287 413 307 413C343 413 375 391 375 355Z" stroke="#fff" stroke-width="20" paint-order="stroke fill" stroke-linejoin="round"/></g><g data-mml-node="TeXAtom" transform="translate(499,413) scale(0.707)" data-latex="{i\pi}" data-mjx-texclass="ORD"><g data-mml-node="mi" data-latex="i"><path data-c="1D456" d="M284 621C284 648 271 661 244 661C216 661 188 633 188 605C188 578 202 565 229 565C257 565 284 593 284 621M259 138C237 59 205 19 164 19C151 19 144 28 144 47C144 64 173 150 232 306C240 329 244 347 244 360C244 409 210 445 161 445C118 445 84 420 59 369C39 328 29 301 29 288C29 279 34 275 45 275C58 275 60 281 64 295C87 375 118 415 158 415C171 415 178 406 178 387C178 373 175 357 168 338C145 275 121 208 101 155C86 115 78 88 78 74C78 25 114-11 162-11C205-11 239 14 264 64C283 103 293 130 293 145C293 154 288 159 277 159C274 159 259 150 259 138Z" stroke="#fff" stroke-width="20" paint-order="stroke fill" stroke-linejoin="round"/></g><g data-mml-node="mi" data-latex="\pi" transform="translate(345,0)"><path data-c="1D70B" d="M524 431L194 431C153 431 117 415 88 384C74 369 27 305 27 292C31 285 31 279 43 279C50 279 56 283 62 292C94 341 135 366 184 366L235 366C212 279 170 172 110 45C105 33 102 24 102 19C102-1 113-11 134-11C153-11 167 0 176 21C194 78 207 122 214 152L269 366L372 366C345 247 331 164 331 117C331 68 342-11 379-11C400-11 423 9 423 30C423 35 421 43 417 53C398 100 389 153 389 214C389 261 395 312 406 366L515 366C550 366 567 378 567 403C567 426 549 431 524 431Z" stroke="#fff" stroke-width="20" paint-order="stroke fill" stroke-linejoin="round"/></g></g></g><g data-mml-node="mo" data-latex="+" transform="translate(1418.2,0)"><path data-c="2B" d="M698 274L413 274L413 559C413 575 405 583 389 583C373 583 365 575 365 559L365 274L80 274C64 274 56 266 56 250C56 234 64 226 80 226L365 226L365-59C365-75 373-83 389-83C405-83 413-75 413-59L413 226L698 226C714 226 722 234 722 250C722 263 711 274 698 274Z" stroke="#fff" stroke-width="20" paint-order="stroke fill" stroke-linejoin="round"/></g><g data-mml-node="mn" data-latex="1" transform="translate(2418.4,0)"><path data-c="31" d="M269 666C228 624 168 603 89 603L89 564C141 564 184 572 217 588L217 82C217 64 213 52 204 47C195 42 170 39 130 39L95 39L95 0C120 2 174 3 257 3C340 3 394 2 419 0L419 39L384 39C343 39 318 42 310 47C302 52 297 64 297 82L297 636C297 660 295 666 269 666Z" stroke="#fff" stroke-width="20" paint-order="stroke fill" stroke-linejoin="round"/></g><g data-mml-node="mo" data-latex="=" transform="translate(3196.2,0)"><path data-c="3D" d="M698 367L80 367C64 367 56 359 56 344C56 329 64 321 80 321L698 321C714 321 722 329 722 344C722 356 711 367 698 367M698 179L80 179C64 179 56 171 56 156C56 141 64 133 80 133L698 133C714 133 722 141 722 156C722 169 711 179 698 179Z" stroke="#fff" stroke-width="20" paint-order="stroke fill" stroke-linejoin="round"/></g><g data-mml-node="mn" data-latex="0" transform="translate(4252,0)"><path data-c="30" d="M249-22C390-22 460 92 460 320C460 473 428 575 365 625C330 652 291 666 250 666C109 666 39 551 39 320C39 136 88-22 249-22M361 524C368 489 371 425 371 332C371 240 367 172 360 128C347 48 310 8 249 8C226 8 203 17 182 34C155 57 139 104 132 176C129 201 128 253 128 332C128 419 131 480 136 513C145 568 163 603 191 618C213 630 232 636 249 636C314 636 350 583 361 524Z" stroke="#fff" stroke-width="20" paint-order="stroke fill" stroke-linejoin="round"/></g></g></g></svg>